<?xml version="1.0" standalone="no"?>
<!DOCTYPE svg PUBLIC "-//W3C//DTD SVG 20010904//EN"
 "http://www.w3.org/TR/2001/REC-SVG-20010904/DTD/svg10.dtd">
<svg version="1.0" xmlns="http://www.w3.org/2000/svg"
 width="1024.000000pt" height="1024.000000pt" viewBox="0 0 1024.000000 1024.000000"
 preserveAspectRatio="xMidYMid meet">

<g transform="translate(0.000000,1024.000000) scale(0.100000,-0.100000)"
fill="#000000" stroke="none">
<path d="M4812 9538 c112 -129 152 -221 152 -353 -1 -140 -49 -256 -187 -449
-40 -55 -90 -128 -110 -161 -119 -194 -157 -429 -97 -605 12 -35 53 -118 91
-183 38 -66 78 -145 89 -178 24 -71 26 -196 5 -286 -18 -77 -89 -229 -122
-262 -22 -23 -26 -48 -6 -44 5 1 9 -8 9 -19 0 -20 0 -20 -17 1 -20 24 -34 28
-25 6 3 -8 0 -14 -7 -12 -7 1 -11 -3 -10 -8 1 -6 -7 -11 -18 -11 -13 0 -19 6
-16 16 3 8 21 69 42 135 33 106 38 133 38 230 2 116 -10 169 -59 267 -87 174
-300 308 -513 325 -46 3 -81 2 -81 -3 0 -5 23 -22 51 -39 62 -36 139 -116 170
-176 19 -35 24 -60 24 -124 0 -103 -23 -151 -143 -300 -84 -105 -216 -292
-256 -366 -17 -31 -19 -32 -27 -14 -11 28 -11 37 1 30 6 -4 17 -1 25 5 18 15
20 102 4 132 -6 11 -15 33 -19 49 -8 27 -7 28 20 23 15 -3 38 0 51 6 l23 13
-27 19 c-30 22 -62 71 -71 110 -6 26 -5 27 24 22 34 -7 42 14 14 37 -21 17
-40 56 -48 99 -5 27 -4 32 6 22 11 -11 58 -18 58 -8 0 2 -11 23 -24 47 -31 56
-43 121 -55 283 -6 70 -13 131 -16 134 -13 14 -23 -24 -29 -116 -11 -146 -26
-241 -46 -296 -22 -56 -18 -71 12 -55 19 10 20 9 14 -16 -4 -16 -21 -48 -38
-73 -24 -35 -28 -46 -17 -53 8 -5 20 -9 27 -9 27 0 1 -58 -45 -103 l-29 -27
-21 27 c-22 31 -48 80 -63 118 -9 23 -8 25 9 15 11 -5 29 -10 41 -10 20 0 19
2 -10 45 -25 37 -60 113 -60 132 0 2 10 -3 22 -11 20 -14 78 -23 78 -11 0 2
-11 21 -25 41 -44 65 -64 151 -101 432 -10 82 -28 39 -51 -122 -12 -87 -30
-181 -39 -210 -22 -67 -52 -126 -64 -126 -20 0 -10 -21 15 -32 22 -10 30 -8
55 11 29 21 30 21 30 1 0 -49 -61 -207 -95 -248 -20 -23 -34 -46 -30 -52 15
-24 -15 -6 -66 39 -76 68 -162 235 -184 356 l-7 40 29 -27 c39 -37 79 -51 106
-37 48 25 49 29 8 78 -65 78 -116 196 -140 326 -5 25 -7 45 -5 45 2 0 15 -11
30 -25 30 -28 70 -32 100 -11 14 11 16 19 9 29 -85 117 -105 174 -136 384 -29
202 -27 195 -47 191 -12 -2 -19 -18 -24 -58 -35 -259 -77 -411 -135 -486 -33
-45 -34 -48 -17 -61 33 -24 85 -9 121 37 11 13 12 11 13 -14 1 -95 -74 -279
-145 -355 l-46 -49 23 -16 c36 -25 81 -20 117 13 l31 29 0 -26 c-1 -38 -60
-190 -101 -257 -33 -55 -95 -120 -134 -143 -19 -10 -19 -11 -1 -31 31 -34 71
-36 129 -7 28 14 53 23 56 21 10 -10 -24 -86 -58 -132 -20 -26 -63 -66 -95
-87 l-59 -39 27 -24 c21 -18 39 -23 82 -23 48 0 59 4 85 30 27 27 30 27 23 7
-26 -84 -76 -161 -196 -296 -32 -36 -58 -71 -58 -78 0 -17 88 -81 121 -88 38
-9 95 18 120 57 17 27 19 29 13 8 -11 -42 -40 -93 -88 -157 -51 -68 -160 -173
-180 -173 -21 0 -126 101 -147 141 -10 22 -18 39 -17 39 2 0 25 -7 52 -15 83
-25 226 -16 226 15 0 5 -8 10 -17 10 -41 0 -140 58 -185 109 -44 49 -95 137
-86 147 3 2 16 -5 31 -16 44 -35 127 -21 127 22 0 11 -16 42 -35 68 -45 62
-83 145 -106 234 -24 93 -24 107 3 69 23 -33 46 -48 56 -38 3 3 0 11 -6 17
-18 18 -14 28 12 28 13 0 34 9 47 19 l24 19 -42 45 c-50 54 -73 98 -102 191
-29 95 -28 100 14 75 56 -33 115 -6 69 31 -38 32 -94 158 -109 248 l-7 42 29
-15 c63 -33 67 -17 19 86 -18 41 -39 98 -46 127 -15 65 -38 67 -56 6 -17 -60
-52 -125 -87 -161 -25 -27 -28 -35 -17 -48 17 -21 56 -19 80 5 l20 20 0 -32
c0 -80 -47 -198 -105 -266 -34 -39 -35 -41 -16 -51 32 -18 60 -13 86 15 l25
27 0 -38 c0 -88 -55 -218 -119 -280 -59 -58 -52 -75 29 -75 30 0 43 6 59 28
18 24 20 25 21 6 1 -78 -82 -247 -162 -327 -32 -32 -58 -63 -58 -68 0 -19 66
-49 109 -49 32 0 53 7 79 27 l35 26 -7 -29 c-16 -69 -81 -181 -143 -245 -34
-36 -63 -68 -63 -71 0 -10 62 -28 97 -28 19 0 44 5 55 11 20 11 20 11 2 -21
-25 -43 -136 -144 -181 -165 l-37 -18 -24 29 c-54 66 -102 161 -117 233 l-7
34 30 -22 c17 -11 44 -21 61 -21 32 0 81 18 81 31 0 4 -20 19 -45 33 -46 28
-84 76 -129 163 -32 65 -33 83 -3 55 24 -23 62 -28 86 -13 12 8 8 24 -21 93
-34 80 -76 202 -97 281 -10 39 -2 48 19 22 15 -18 60 -20 84 -2 17 12 17 15
-8 51 -34 50 -65 135 -82 224 -18 96 -18 97 11 78 24 -15 55 -22 55 -11 0 3
-13 32 -30 63 -36 71 -56 147 -65 250 -7 77 -18 113 -30 101 -3 -4 -14 -64
-25 -136 -16 -111 -33 -178 -65 -255 -9 -23 19 -35 40 -18 24 20 19 -15 -16
-124 -34 -103 -93 -207 -130 -227 -22 -11 -22 -12 -4 -25 34 -25 74 -17 112
21 20 20 37 34 39 32 2 -1 -4 -36 -12 -77 -21 -107 -83 -230 -139 -276 -49
-40 -49 -51 6 -80 39 -20 44 -19 89 22 l40 36 0 -26 c0 -79 -88 -215 -183
-283 l-45 -33 -26 39 c-31 44 -66 131 -66 163 0 19 2 20 18 6 23 -20 44 -26
64 -19 15 5 11 13 -22 50 -22 25 -44 61 -50 80 -13 46 -12 61 1 39 10 -17 40
-24 51 -12 4 3 -5 29 -18 57 -13 29 -24 70 -24 92 0 22 -5 95 -12 163 -9 87
-16 122 -25 122 -7 0 -13 -3 -13 -7 0 -26 -32 -196 -44 -238 -9 -27 -29 -72
-46 -98 -25 -40 -27 -49 -14 -54 8 -3 26 -1 40 5 30 14 31 4 4 -48 -24 -48
-27 -68 -6 -51 13 11 13 4 0 -49 -19 -80 -55 -150 -93 -178 -17 -12 -31 -27
-31 -32 0 -19 76 -11 104 11 14 11 26 17 26 12 0 -49 -75 -183 -102 -183 -32
0 -29 -20 6 -37 29 -13 40 -14 61 -5 21 10 25 9 25 -6 0 -26 -42 -93 -71 -115
-29 -21 -59 -25 -102 -14 -23 6 -27 4 -27 -14 0 -27 59 -86 95 -95 19 -5 38
-2 57 9 l28 16 -15 -37 c-8 -20 -32 -52 -51 -71 -34 -32 -40 -33 -90 -28 -61
6 -64 1 -33 -49 40 -65 121 -93 162 -56 19 16 19 16 12 -8 -19 -66 -87 -130
-138 -130 -8 0 -41 14 -72 30 -32 17 -60 28 -62 26 -10 -9 63 -132 99 -168 21
-21 54 -44 74 -53 36 -15 36 -15 20 -40 -9 -14 -23 -36 -31 -48 -8 -13 -27
-29 -41 -36 -22 -10 -34 -8 -81 14 -31 14 -57 25 -59 25 -3 0 3 -16 11 -36 8
-20 15 -40 15 -45 0 -17 -37 -9 -58 14 -27 28 -69 120 -78 171 l-7 40 28 -22
c19 -15 42 -22 71 -22 57 0 58 18 5 76 -35 37 -109 164 -97 164 3 0 16 -4 31
-10 19 -7 36 -6 63 6 l37 15 -30 25 c-16 13 -33 24 -36 24 -14 0 -61 105 -74
167 -19 87 -19 89 3 70 23 -21 71 -22 78 -3 3 8 -4 28 -16 44 -27 37 -58 146
-67 235 -6 63 -5 67 15 67 31 0 34 13 13 61 -11 24 -27 77 -36 117 -10 44 -21
72 -28 69 -6 -2 -22 -46 -35 -98 -36 -146 -37 -149 -18 -149 20 0 21 -34 1
-118 -18 -75 -35 -109 -77 -158 -31 -35 -31 -37 -13 -50 26 -19 54 -18 78 4
20 17 20 16 14 -31 -14 -103 -68 -184 -144 -218 -46 -20 -53 -37 -25 -61 26
-24 73 -30 105 -14 25 14 27 13 27 -3 0 -23 -19 -66 -44 -104 -21 -31 -72 -61
-124 -72 -41 -8 -42 -33 -4 -76 30 -34 93 -52 132 -37 12 5 25 6 27 4 9 -8
-74 -121 -120 -163 -53 -49 -98 -70 -168 -79 -29 -4 -49 -12 -49 -19 0 -21 94
-101 134 -115 20 -6 59 -10 85 -8 l49 3 -32 -35 c-82 -94 -191 -153 -299 -166
-74 -8 -73 -27 2 -66 70 -37 166 -39 269 -5 l72 23 -27 -35 c-87 -117 -172
-186 -284 -231 -83 -34 -129 -74 -148 -129 -16 -48 -16 -2793 0 -2857 13 -50
68 -111 127 -140 35 -18 85 -19 1072 -21 569 -2 1044 -5 1056 -8 12 -2 53 -31
92 -64 347 -290 789 -544 1210 -693 532 -188 1083 -261 1627 -213 516 45 1007
185 1460 415 270 136 440 249 774 510 57 45 69 50 115 50 28 1 495 2 1037 3
l985 2 59 30 c78 40 121 96 130 167 3 29 5 674 3 1433 -3 1478 0 1396 -52
1454 -11 13 -66 45 -121 71 -111 52 -162 92 -241 189 -49 59 -64 90 -32 63 44
-36 210 -54 279 -30 44 15 109 56 109 68 0 6 -15 10 -33 10 -48 0 -145 27
-186 52 -44 27 -92 68 -130 110 l-29 33 49 2 c62 3 135 40 184 95 l40 43 -55
6 c-30 3 -76 15 -101 26 -54 24 -154 120 -186 180 l-23 41 44 -5 c78 -9 130
20 150 83 6 19 1 23 -40 33 -73 19 -125 70 -152 149 l-11 32 39 -6 c46 -7 96
10 111 37 8 16 2 22 -40 43 -27 14 -62 42 -79 61 -32 40 -62 120 -62 167 0 27
1 28 16 14 20 -21 58 -20 79 0 15 16 14 19 -13 48 -51 53 -76 116 -91 224 -7
45 -5 52 9 52 28 0 29 10 9 56 -10 25 -24 74 -30 109 -21 112 -38 113 -57 3
-7 -36 -21 -86 -31 -109 -22 -47 -20 -59 10 -59 25 0 25 -26 0 -146 -19 -93
-46 -164 -62 -164 -16 0 -10 -38 7 -44 27 -10 47 -7 67 11 18 17 19 17 12 -22
-20 -110 -46 -169 -96 -217 -48 -47 -48 -47 -26 -63 25 -18 60 -19 89 -4 18
10 19 8 13 -13 -13 -43 -70 -129 -102 -154 -18 -14 -33 -34 -33 -45 0 -16 7
-19 43 -19 23 0 53 7 66 17 l24 16 -7 -38 c-9 -44 -57 -144 -81 -169 -16 -15
-65 -23 -65 -10 0 3 8 19 17 35 21 36 13 45 -24 26 -56 -28 -79 -29 -111 -2
-17 14 -40 41 -51 61 l-21 35 36 15 c20 8 54 34 77 58 42 43 96 140 84 152 -3
4 -21 -3 -40 -15 -23 -14 -51 -21 -84 -21 -41 0 -54 5 -80 30 -32 32 -60 86
-49 97 3 4 12 1 18 -5 31 -31 111 3 147 62 12 18 21 38 21 43 0 5 -25 7 -57 5
-56 -4 -59 -2 -95 33 -36 36 -66 95 -48 95 5 0 12 -4 15 -10 24 -39 154 40
155 93 0 16 -5 17 -32 11 -54 -13 -78 -8 -110 22 -30 30 -50 61 -62 102 -7 21
-6 21 18 11 21 -10 33 -9 66 6 36 16 39 20 23 28 -50 27 -113 119 -113 167 0
24 8 25 34 5 21 -16 81 -20 90 -7 3 5 -9 21 -25 36 -35 34 -71 100 -93 175
-21 71 -20 78 4 56 26 -24 25 -17 -7 44 -14 28 -24 54 -21 57 3 2 17 -1 31 -7
14 -6 33 -9 42 -5 14 5 11 12 -15 45 -37 45 -72 152 -90 269 -13 83 -32 107
-38 46 -18 -208 -35 -323 -53 -352 -28 -49 -7 -71 33 -35 19 17 19 16 12 -12
-13 -56 -23 -74 -58 -106 -20 -17 -33 -36 -30 -40 8 -14 51 -10 68 6 8 8 17
15 20 15 24 0 -24 -139 -63 -182 -35 -40 -52 -34 -130 43 -64 64 -115 154
-127 224 l-7 39 43 -37 c24 -20 53 -37 64 -37 20 1 76 41 76 55 0 4 -14 18
-32 33 -70 59 -139 201 -154 317 l-7 50 22 -27 c29 -36 92 -56 127 -39 l27 12
-40 37 c-50 46 -105 154 -132 258 -11 43 -18 80 -16 82 2 2 12 -1 24 -7 32
-18 34 3 7 83 -14 41 -34 131 -43 200 -20 144 -37 165 -48 59 -11 -117 -35
-216 -67 -281 -17 -34 -28 -65 -24 -69 4 -4 21 -2 37 4 l31 12 -7 -47 c-13
-90 -46 -197 -75 -245 -17 -27 -30 -52 -30 -57 0 -23 72 -27 90 -5 20 24 30
17 24 -17 -8 -44 -56 -190 -96 -289 -26 -67 -29 -82 -17 -90 24 -15 58 -10 79
11 31 31 26 -1 -12 -73 -37 -68 -87 -123 -135 -149 -38 -20 -41 -33 -12 -48
36 -20 98 -15 125 11 13 12 26 20 29 17 3 -2 -6 -38 -20 -78 -26 -77 -69 -151
-109 -189 -23 -22 -25 -22 -57 -5 -52 26 -116 82 -154 134 -40 54 -43 65 -16
50 29 -15 88 -12 122 6 l30 15 -69 73 c-42 45 -82 99 -100 137 -37 76 -49 119
-33 119 6 0 11 -4 11 -8 0 -14 48 -32 86 -32 33 0 107 30 118 48 2 4 -14 23
-37 42 -75 60 -147 174 -181 289 -22 74 -20 84 9 56 29 -30 94 -34 119 -9 15
14 12 20 -29 61 -25 25 -54 62 -64 82 -26 51 -61 167 -61 204 l0 30 24 -22
c37 -35 127 -32 101 3 -6 7 -27 35 -47 62 -39 52 -88 182 -88 234 l0 31 26
-20 c31 -25 57 -27 74 -6 10 12 7 21 -19 50 -36 41 -53 72 -82 149 -24 65 -44
72 -54 19 -3 -21 -24 -83 -46 -137 -22 -54 -37 -101 -34 -105 3 -3 20 0 37 7
18 6 34 10 36 7 9 -8 -30 -149 -54 -196 -12 -25 -34 -60 -48 -76 -19 -23 -22
-33 -14 -41 19 -19 60 -14 85 10 l23 21 0 -25 c0 -36 -43 -159 -74 -212 -14
-25 -37 -53 -51 -64 -34 -27 -31 -47 11 -67 22 -10 34 -22 30 -31 -3 -7 -1
-16 4 -19 11 -7 54 32 62 56 3 8 8 11 12 8 7 -7 -43 -176 -73 -243 -12 -28
-32 -64 -45 -80 -44 -59 -50 -76 -30 -97 26 -29 85 -25 125 8 l32 27 -8 -25
c-35 -113 -133 -210 -247 -244 -85 -25 -46 -45 86 -45 51 0 83 6 109 19 42 21
42 22 23 -22 -14 -33 -126 -147 -145 -147 -16 0 -140 120 -181 175 -40 54 -73
115 -84 155 -7 21 -5 20 13 -7 41 -65 102 -71 186 -18 30 20 55 42 55 49 0 7
-30 47 -67 87 -96 107 -149 182 -172 245 -12 30 -21 56 -21 58 0 2 14 -9 31
-25 25 -24 40 -29 79 -29 45 0 100 27 100 50 0 4 -20 20 -43 33 -57 34 -113
97 -143 161 -33 70 -31 80 12 51 48 -33 120 -34 153 -4 l22 21 -35 27 c-44 35
-99 101 -132 157 -30 51 -78 174 -88 224 l-6 34 28 -27 c37 -36 80 -43 122
-22 l32 17 -40 41 c-22 23 -52 61 -66 85 -30 47 -80 193 -91 261 l-7 45 31
-26 c17 -15 39 -29 50 -33 21 -6 71 10 71 24 0 5 -16 32 -35 61 -46 68 -78
173 -104 345 -30 189 -29 185 -50 185 -15 0 -19 -15 -30 -112 -22 -209 -68
-361 -133 -442 -30 -37 -30 -40 -13 -52 29 -21 70 -17 104 12 35 29 36 26 20
-61 -15 -84 -79 -226 -129 -285 -33 -39 -40 -53 -31 -64 29 -35 113 -19 147
28 15 20 16 19 10 -23 -9 -63 -71 -217 -112 -279 -19 -28 -53 -65 -75 -82
l-41 -29 -35 41 c-19 23 -43 59 -54 81 -22 42 -62 187 -54 195 3 3 14 -3 25
-13 22 -20 66 -23 83 -6 8 8 4 18 -15 38 -14 16 -30 37 -36 48 -20 39 -42 144
-61 285 -11 78 -22 144 -25 147 -11 12 -26 -11 -26 -41 0 -50 -29 -243 -46
-310 -16 -63 -47 -130 -64 -141 -6 -4 -8 -11 -5 -16 9 -13 59 -11 73 3 9 9 12
8 12 -7 0 -25 -44 -120 -59 -129 -6 -4 -11 -14 -11 -21 0 -12 6 -12 26 -4 15
5 28 8 30 6 14 -14 -60 -146 -82 -147 -21 0 -84 86 -84 115 0 9 9 15 25 15 14
0 25 2 25 4 0 2 -16 30 -35 62 -42 70 -44 83 -8 76 29 -6 29 -11 -6 88 -10 30
-24 109 -31 175 -17 181 -20 205 -30 205 -11 0 -17 -39 -25 -155 -9 -137 -25
-215 -53 -268 -28 -52 -25 -66 13 -49 22 10 25 9 25 -9 0 -28 -24 -81 -43 -98
-27 -21 -22 -44 8 -39 20 4 25 1 25 -14 0 -26 -27 -77 -57 -110 -14 -14 -22
-31 -19 -37 10 -15 63 -14 69 2 16 37 4 -38 -13 -86 -11 -31 -20 -67 -20 -80
0 -32 23 -62 43 -54 13 5 14 1 5 -23 l-10 -29 -35 52 c-168 245 -210 322 -219
403 -4 32 2 90 16 164 15 78 21 135 17 178 -7 87 -53 178 -120 237 -28 25 -55
45 -59 45 -3 0 4 -19 17 -42 35 -63 49 -158 34 -222 -17 -72 -29 -92 -116
-198 -184 -220 -234 -342 -234 -570 0 -49 -4 -88 -8 -88 -5 0 -8 16 -7 36 1
44 -21 58 -27 17 -4 -27 -4 -27 -6 4 -1 23 -5 31 -15 27 -11 -4 -15 7 -18 50
-2 45 1 59 15 72 17 14 18 14 12 -5 -4 -15 -1 -23 10 -27 26 -11 27 1 6 74
-12 38 -22 100 -23 138 -1 66 2 75 65 204 79 163 104 236 119 356 10 77 9 104
-5 175 -27 140 -71 215 -212 359 -67 69 -132 139 -144 157 -44 64 -62 140 -71
303 -10 173 -23 228 -81 341 -72 138 -203 269 -366 363 -53 31 -215 106 -229
106 -3 0 24 -33 58 -72z m388 -752 c0 -2 -8 -10 -17 -17 -16 -13 -17 -12 -4 4
13 16 21 21 21 13z m10 -55 c-28 -56 -35 -52 -8 4 12 24 23 43 26 41 2 -2 -6
-22 -18 -45z m-40 15 c0 -2 -7 -9 -15 -16 -13 -11 -14 -10 -9 4 5 14 24 23 24
12z m-33 -58 c-3 -8 -6 -5 -6 6 -1 11 2 17 5 13 3 -3 4 -12 1 -19z m-21 -7 c0
-10 -6 -17 -12 -14 -6 2 -20 -14 -30 -36 -11 -22 -25 -41 -33 -41 -8 0 -11 -6
-7 -16 3 -8 2 -12 -4 -9 -11 7 -31 -28 -27 -47 2 -7 2 -9 -1 -5 -2 5 -16 -2
-30 -15 -26 -24 -23 -16 14 39 22 33 124 163 128 163 1 0 2 -8 2 -19z m54 -37
c-9 -23 -13 -25 -20 -14 -6 8 -10 20 -10 25 0 6 4 4 9 -3 6 -10 10 -8 14 9 4
13 9 21 12 17 3 -3 1 -18 -5 -34z m-36 -62 c3 -5 -1 -9 -9 -9 -8 0 -15 4 -15
9 0 4 4 8 9 8 6 0 12 -4 15 -8z m180 -59 c-3 -16 -11 -41 -17 -58 -8 -19 -12
-96 -12 -207 0 -185 -13 -209 -22 -43 -8 128 22 335 48 335 5 0 7 -12 3 -27z
m-197 -45 c-3 -8 -6 -5 -6 6 -1 11 2 17 5 13 3 -3 4 -12 1 -19z m-20 -30 c-3
-7 -5 -2 -5 12 0 14 2 19 5 13 2 -7 2 -19 0 -25z m-150 7 c-4 -8 -2 -17 3 -20
6 -4 10 -16 9 -28 0 -22 0 -22 -10 1 -5 13 -13 21 -17 18 -8 -5 -34 -60 -46
-99 -3 -10 -10 -15 -16 -12 -9 6 22 79 58 133 16 25 27 29 19 7z m425 -90 c3
-51 2 -79 -3 -65 -6 18 -7 12 -5 -22 1 -27 -1 -48 -6 -48 -4 0 -6 42 -4 93 3
50 5 103 5 116 2 51 9 12 13 -74z m-300 33 c-6 -6 -12 -5 -17 3 -5 8 -4 10 3
5 8 -5 12 1 13 16 1 18 2 19 6 4 3 -10 0 -23 -5 -28z m20 -50 c-7 -7 -12 -24
-12 -39 0 -15 -4 -31 -10 -34 -6 -4 -10 10 -10 34 0 23 5 41 10 41 6 0 10 8
10 17 0 13 3 14 12 5 9 -9 9 -15 0 -24z m-167 -7 c-3 -6 -11 -11 -17 -11 -6 0
-6 6 2 15 14 17 26 13 15 -4z m182 -23 c0 -13 3 -36 7 -53 6 -23 5 -26 -3 -15
-10 13 -12 13 -21 0 -11 -15 -10 -9 5 65 7 31 13 32 12 3z m-262 -102 c-19
-81 -16 -183 6 -196 6 -4 9 -12 7 -16 -3 -5 -2 -18 2 -28 6 -19 7 -19 12 2 4
14 2 20 -4 15 -7 -4 -8 -1 -3 6 13 22 28 -4 16 -27 -18 -33 -13 -63 10 -69 14
-4 17 -8 9 -13 -9 -6 -8 -14 5 -34 12 -18 21 -23 25 -16 6 10 40 -56 40 -77 0
-9 -60 60 -71 82 -5 11 -18 35 -29 53 -11 18 -18 38 -15 43 4 5 2 9 -3 9 -11
0 -32 113 -32 171 0 39 5 69 26 158 3 13 8 21 11 18 3 -4 -2 -40 -12 -81z
m288 1 c3 -8 2 -20 -3 -26 -5 -9 -7 -4 -7 13 0 29 2 32 10 13z m258 -94 c-7
-23 -10 -25 -15 -10 -14 39 -15 47 -6 47 6 0 10 8 11 18 0 13 2 13 9 -5 5 -12
5 -34 1 -50z m-540 30 c-12 -20 -14 -14 -5 12 4 9 9 14 11 11 3 -2 0 -13 -6
-23z m408 -111 c25 -25 36 -40 24 -34 -30 16 -41 15 -17 -2 10 -8 16 -18 12
-21 -4 -4 -14 0 -23 8 -8 9 -22 14 -29 11 -8 -3 -17 -1 -21 5 -3 7 0 8 9 5 16
-6 23 10 9 19 -5 2 -2 2 5 0 8 -1 12 3 9 9 -2 7 -12 13 -23 13 -28 0 -49 16
-34 25 9 6 9 12 0 29 -10 19 -14 20 -28 9 -14 -11 -15 -11 -9 5 4 10 7 26 7
34 0 9 14 -3 31 -27 17 -24 52 -63 78 -88z m-117 51 c7 -9 7 -13 0 -13 -12 0
-22 25 -21 48 1 13 3 12 6 -3 3 -11 10 -26 15 -32z m258 -13 c-6 -12 -14 -20
-17 -17 -2 3 1 14 8 26 17 26 24 19 9 -9z m-533 -32 c-3 -7 -5 -2 -5 12 0 14
2 19 5 13 2 -7 2 -19 0 -25z m157 19 c4 4 24 7 46 8 40 1 54 -12 44 -39 -3 -8
4 -16 18 -20 18 -5 20 -8 9 -15 -7 -5 -10 -14 -7 -20 4 -6 2 -11 -3 -11 -6 0
-11 10 -11 21 0 17 -3 19 -13 10 -14 -11 -27 -6 -27 10 0 5 7 6 15 3 13 -5 13
-1 -2 24 -10 17 -21 28 -26 25 -4 -2 -3 -11 4 -19 6 -8 9 -17 6 -21 -4 -3 -9
2 -13 11 -3 9 -11 13 -17 9 -6 -4 -8 0 -4 10 4 12 2 14 -10 10 -12 -5 -2 -20
44 -67 105 -106 138 -144 157 -178 56 -101 87 -171 104 -243 39 -158 37 -257
-12 -530 -38 -209 -33 -362 18 -550 10 -33 20 -67 23 -75 3 -8 7 -22 8 -30 1
-8 12 -58 24 -110 15 -65 22 -131 23 -212 1 -98 4 -116 15 -106 8 6 12 17 9
25 -3 8 -2 12 3 9 11 -7 55 40 47 52 -3 5 4 18 17 28 12 10 16 12 10 4 -7 -8
-13 -18 -13 -24 0 -5 6 -1 14 9 9 13 11 26 6 36 -6 11 -5 16 5 16 8 0 11 -5 8
-11 -3 -7 -1 -6 7 1 13 12 5 37 -9 28 -5 -2 -1 11 7 30 9 19 20 35 24 35 8 0
0 -28 -15 -50 -6 -8 -1 -6 10 5 26 24 95 143 97 167 0 9 15 28 31 42 32 28 45
32 45 16 0 -5 -3 -10 -7 -10 -5 0 -9 -24 -11 -52 -2 -29 -7 -70 -11 -90 -5
-21 -5 -36 -1 -33 8 5 20 -19 19 -38 0 -7 -4 -3 -9 8 -5 11 -9 14 -9 7 -1 -7
-6 -10 -13 -6 -7 4 -8 3 -4 -5 4 -6 3 -17 -2 -24 -26 -31 -32 -126 -15 -250 9
-67 18 -124 20 -127 9 -10 19 22 22 67 2 53 8 66 23 57 6 -4 15 0 20 7 7 10 9
8 5 -8 -3 -15 -1 -20 8 -16 10 3 11 12 5 31 -16 52 -21 88 -10 72 5 -8 10 -26
10 -39 0 -36 16 -13 23 31 4 27 1 42 -10 53 -12 13 -13 27 -5 91 16 115 32
118 32 6 0 -55 4 -92 10 -92 6 0 10 10 11 23 0 21 1 21 10 2 9 -18 9 -18 5 3
-2 13 0 37 5 55 13 41 1 194 -15 210 -7 6 -11 19 -8 29 2 10 -1 18 -7 18 -6 0
-11 7 -11 15 0 20 -10 19 -26 -2 -12 -17 -13 -16 -14 6 0 21 3 23 30 18 22 -5
30 -3 30 8 0 8 -4 15 -10 15 -5 0 -10 9 -10 21 0 15 5 19 15 15 21 -8 31 21
17 45 -7 11 -8 20 -2 24 6 3 10 1 10 -5 0 -6 7 -18 15 -27 14 -14 15 -13 9 13
-4 16 -11 32 -17 35 -5 4 -7 13 -5 20 4 9 10 3 19 -16 21 -47 49 -85 64 -85 8
0 16 19 21 53 l8 52 6 -40 c3 -22 3 -42 0 -45 -8 -8 -30 -49 -30 -56 0 -4 7
-1 15 6 16 13 20 3 7 -17 -4 -7 -17 -10 -30 -6 -17 4 -20 9 -12 18 6 8 7 16 2
19 -5 3 -15 -6 -22 -19 -7 -14 -19 -25 -27 -25 -17 0 -17 -14 1 -29 11 -9 15
-7 19 11 4 12 9 20 12 17 3 -3 -1 -21 -9 -39 -13 -31 -14 -32 -20 -12 -4 12
-12 22 -17 22 -5 0 -4 -10 3 -21 7 -12 21 -35 31 -53 9 -17 17 -24 16 -16 -3
38 2 80 9 80 25 0 41 -94 23 -128 -6 -11 -5 -47 2 -95 15 -104 -1 -205 -55
-361 -36 -103 -42 -133 -43 -201 0 -102 14 -217 26 -210 5 4 6 -1 3 -9 -7 -17
23 -155 37 -170 4 -5 22 6 41 23 18 17 37 31 41 31 5 0 5 6 1 13 -4 6 -4 9 1
5 4 -4 20 -1 36 7 37 20 56 20 40 1 -6 -7 -8 -22 -4 -31 4 -13 3 -16 -6 -11
-10 6 -93 -61 -199 -161 -11 -11 -11 -16 3 -29 24 -24 15 -48 -20 -52 -17 -2
-72 -1 -122 3 l-93 7 0 125 0 125 45 -4 c25 -2 45 1 45 5 0 5 -27 37 -61 72
-34 35 -58 68 -55 74 4 5 1 13 -5 17 -8 5 -9 3 -4 -7 19 -31 -30 19 -117 118
-53 61 -86 108 -82 114 4 7 3 9 -3 6 -15 -9 -146 139 -137 154 4 7 3 9 -3 6
-6 -4 -22 8 -36 27 -21 27 -26 46 -28 98 -2 66 5 93 22 83 19 -13 7 9 -31 55
-47 56 -56 80 -66 175 l-8 70 -6 -87 c-7 -82 -9 -90 -48 -142 -42 -56 -51 -76
-32 -76 7 0 10 -29 8 -77 -3 -73 -4 -78 -25 -76 -14 2 -24 -4 -28 -17 -4 -11
-10 -20 -13 -20 -4 0 -31 -27 -60 -60 -58 -66 -63 -82 -7 -23 19 20 37 35 39
32 8 -7 -118 -140 -133 -139 -8 0 -11 -6 -7 -16 5 -14 4 -15 -9 -4 -14 11 -19
7 -16 -12 0 -5 -6 -8 -15 -8 -8 0 -12 -4 -9 -10 3 -5 2 -10 -4 -10 -5 0 -13
-9 -16 -21 -4 -11 -18 -25 -31 -31 -13 -6 -24 -20 -24 -30 0 -11 -4 -17 -8
-14 -10 6 -62 -47 -62 -63 0 -5 -8 -15 -17 -20 -11 -6 -13 -11 -5 -11 7 0 24
11 38 25 14 14 27 25 30 25 6 0 -124 -158 -137 -166 -22 -13 -6 -24 30 -18
l39 6 7 -121 c4 -67 4 -125 0 -129 -3 -4 -60 -9 -126 -10 l-119 -4 0 26 c0 18
7 29 22 35 21 8 19 10 -22 31 -25 13 -60 34 -78 48 -18 14 -36 22 -40 18 -4
-4 1 -13 11 -20 18 -14 23 -36 8 -36 -10 0 -164 128 -169 141 -2 5 9 8 25 9
75 0 78 1 63 10 -12 7 -11 10 5 16 18 7 18 8 -1 16 -11 5 3 6 36 3 30 -3 49
-2 43 1 -16 7 -17 84 -2 84 7 0 23 12 38 28 l25 27 7 -30 c5 -23 7 -25 8 -7 0
12 10 38 20 58 18 33 20 34 24 12 3 -15 5 -9 6 17 1 22 4 52 6 66 2 14 0 50
-5 80 -8 54 -8 52 -14 -44 -2 -20 -6 -40 -9 -44 -9 -8 -8 47 2 115 4 28 4 52
0 52 -4 0 -5 9 -2 20 3 12 0 20 -7 20 -6 0 -10 6 -7 13 2 6 -2 28 -9 47 -32
83 -57 199 -57 270 0 65 -1 69 -7 30 l-7 -45 -1 39 c-2 29 -5 37 -13 29 -8 -8
-8 -22 0 -49 6 -22 11 -54 11 -72 0 -18 7 -43 15 -56 12 -18 13 -29 5 -47
l-11 -24 5 24 c3 13 0 34 -6 45 -11 20 -11 20 -19 1 -4 -11 -5 7 -3 40 2 33 1
52 -2 43 -10 -32 -24 -19 -24 22 0 22 -4 40 -8 40 -4 0 -8 36 -9 80 -1 44 2
80 7 80 5 0 12 9 15 20 4 11 11 17 17 14 7 -4 6 -9 -2 -14 -9 -6 -9 -12 0 -30
7 -12 10 -35 8 -51 -6 -38 8 -28 17 13 6 29 8 31 15 13 7 -16 9 -17 9 -3 1 9
-4 20 -10 24 -8 4 -7 9 2 15 11 6 10 9 -3 14 -16 6 -16 8 0 25 9 9 27 21 40
24 12 4 22 13 22 21 0 7 7 16 16 19 9 4 14 13 10 21 -3 8 -2 14 2 14 18 -3 32
2 32 11 0 5 -6 7 -13 5 -9 -4 -11 7 -9 40 4 50 22 62 22 15 0 -28 2 -30 40
-30 43 0 46 6 41 71 -1 16 4 29 14 32 15 6 22 -8 7 -17 -4 -2 -7 -29 -6 -58 3
-73 -4 -102 -22 -87 -8 6 -14 18 -14 25 0 8 -8 14 -17 14 -21 0 -56 -56 -46
-72 3 -6 2 -8 -4 -5 -21 13 -31 -180 -13 -272 14 -76 66 -193 107 -240 35 -41
36 -42 50 -21 9 13 12 31 9 46 -4 15 -2 32 5 40 6 7 8 25 5 38 -3 14 -2 28 4
31 20 12 12 84 -25 245 -38 161 -40 178 -22 198 9 10 17 25 16 33 0 8 -4 6
-10 -6 -6 -14 -7 -3 -4 35 2 30 5 57 5 60 1 3 10 -38 21 -90 23 -108 91 -249
165 -343 40 -50 47 -55 60 -42 10 10 12 20 6 32 -14 26 -21 112 -11 119 5 3 6
10 3 16 -3 5 6 31 20 58 15 28 24 56 20 66 -5 16 -4 16 5 4 9 -12 11 -11 11 8
0 12 -4 22 -10 22 -12 0 4 46 23 65 8 7 20 41 27 74 14 69 27 83 47 56 7 -11
13 -14 13 -9 0 6 -6 16 -12 23 -10 11 -10 14 0 18 6 3 12 19 12 37 0 30 15 56
32 56 4 0 8 -9 8 -19 0 -11 4 -22 8 -25 4 -2 8 6 8 20 0 13 -4 24 -8 24 -15 0
-8 17 17 44 18 19 25 22 25 12 0 -9 7 -16 16 -16 12 0 15 7 12 24 -3 15 0 27
8 30 8 3 14 11 14 18 0 9 -3 8 -10 -2 -9 -13 -10 -13 -10 0 0 13 -1 13 -10 0
-5 -8 -10 -10 -10 -5 0 6 5 17 10 25 6 9 10 10 10 3 0 -6 9 -10 19 -8 15 3 18
-1 14 -13 -3 -9 -10 -22 -15 -29 -6 -7 -8 -18 -6 -24 2 -6 13 8 23 31 13 28
16 45 9 47 -6 2 -10 16 -8 31 2 15 1 19 -2 10 -3 -10 -10 -18 -15 -18 -16 0
-10 16 14 37 27 25 52 60 52 76 1 11 23 64 33 77 2 2 7 -2 11 -9 6 -9 9 -4 9
14 0 18 -3 23 -9 14 -12 -20 -31 37 -20 59 18 35 31 89 31 126 0 21 7 44 15
53 12 11 14 30 10 80 -3 37 0 84 7 107 12 45 24 64 26 44 1 -7 6 -49 11 -93
l10 -80 -4 102 c-3 69 -9 112 -20 130 l-16 28 6 -27 c3 -16 1 -28 -5 -28 -9 0
-11 20 -12 109 0 18 -7 45 -15 60 l-14 26 6 -34 c5 -22 4 -31 -3 -27 -6 4 -8
-2 -5 -14 6 -24 -4 -70 -16 -70 -13 0 -23 151 -11 165 6 7 7 20 4 30 -6 16 -8
16 -18 -3 -6 -11 -11 -41 -11 -66 0 -27 -4 -46 -11 -46 -12 0 -34 -42 -34 -66
0 -8 4 -12 10 -9 6 4 7 -1 3 -11 -4 -11 -2 -15 4 -11 6 4 8 -3 5 -20 -5 -24
-6 -23 -23 21 -11 25 -27 59 -36 73 -10 15 -17 36 -15 47 2 16 1 18 -6 7 -16
-23 -47 32 -32 56 10 16 11 16 7 -4 -3 -13 2 -28 11 -35 13 -11 15 -10 9 5 -8
20 1 47 15 47 6 0 8 -6 5 -14 -4 -10 0 -12 14 -9 12 3 18 11 15 19 -7 17 3 44
15 44 5 0 9 -15 9 -32 1 -28 2 -30 11 -15 6 10 9 30 7 45 -2 21 -8 27 -25 25
-24 -3 -31 11 -12 23 6 3 9 19 7 35 -3 15 -1 26 4 23 4 -3 8 -13 8 -22 0 -9
12 -29 27 -44 15 -15 21 -28 15 -28 -7 0 -12 -8 -12 -17 0 -15 2 -15 14 2 12
17 11 23 -10 51 -13 17 -24 36 -24 42 0 6 -9 18 -21 26 -12 8 -19 19 -15 24 7
12 -50 79 -60 69 -5 -4 -2 -13 6 -18 13 -9 13 -10 0 -6 -9 2 -14 14 -12 27 1
12 -3 30 -10 38 -11 13 -10 14 8 4 12 -6 24 -8 28 -5z m283 1 c-2 -7 5 -23 16
-35 11 -13 16 -23 10 -23 -15 0 -41 42 -36 58 3 6 7 12 10 12 2 0 3 -6 0 -12z
m26 -3 c-3 -9 -8 -14 -10 -11 -3 3 -2 9 2 15 9 16 15 13 8 -4z m84 -22 c-3
-10 -5 -4 -5 12 0 17 2 24 5 18 2 -7 2 -21 0 -30z m-237 3 c0 -8 -4 -18 -10
-21 -5 -3 -10 -4 -10 -1 0 2 -3 11 -6 20 -4 11 -1 16 10 16 9 0 16 -6 16 -14z
m420 -61 c0 -8 -4 -15 -10 -15 -5 0 -10 -7 -10 -17 0 -9 -2 -14 -5 -11 -9 8 6
58 16 58 5 0 9 -7 9 -15z m-413 -17 c-3 -8 -6 -5 -6 6 -1 11 2 17 5 13 3 -3 4
-12 1 -19z m29 -4 c-3 -9 -6 -18 -6 -20 0 -2 -4 -4 -9 -4 -5 0 -7 9 -4 20 3
11 10 20 15 20 6 0 7 -7 4 -16z m-160 -42 c2 -44 1 -45 -6 -12 l-7 35 -2 -32
c-1 -41 -21 -44 -21 -3 0 17 5 30 10 30 6 0 10 7 10 15 0 8 3 15 8 15 4 0 8
-21 8 -48z m401 26 c-3 -8 -6 -5 -6 6 -1 11 2 17 5 13 3 -3 4 -12 1 -19z m133
-33 c-6 -8 -9 -19 -5 -25 3 -5 3 -20 -1 -32 -6 -21 -7 -21 -20 -3 -8 10 -15
16 -15 12 -1 -4 -3 -11 -4 -17 -1 -5 -3 -19 -4 -30 0 -11 -8 -20 -17 -20 -11
0 -14 6 -8 22 13 43 52 108 58 95 2 -7 8 -2 12 13 4 13 9 19 12 12 2 -7 -1
-19 -8 -27z m-423 3 c-3 -8 -6 -5 -6 6 -1 11 2 17 5 13 3 -3 4 -12 1 -19z
m103 -18 c0 -5 -4 -10 -10 -10 -5 0 -10 5 -10 10 0 6 5 10 10 10 6 0 10 -4 10
-10z m350 -12 c1 -13 3 -48 5 -78 3 -44 2 -48 -4 -20 l-8 35 -2 -45 c0 -25 3
-61 9 -79 7 -26 7 -32 -2 -23 -14 14 -28 155 -15 163 5 4 6 21 2 38 -4 20 -3
31 4 31 6 0 11 -10 11 -22z m-670 2 c0 -5 -4 -10 -10 -10 -5 0 -10 5 -10 10 0
6 5 10 10 10 6 0 10 -4 10 -10z m7 -42 c-3 -8 -6 -5 -6 6 -1 11 2 17 5 13 3
-3 4 -12 1 -19z m53 2 c0 -5 -7 -10 -15 -10 -8 0 -15 5 -15 10 0 6 7 10 15 10
8 0 15 -4 15 -10z m245 0 c3 -5 1 -10 -4 -10 -6 0 -11 5 -11 10 0 6 2 10 4 10
3 0 8 -4 11 -10z m209 -64 c-3 -15 -8 -25 -11 -23 -2 3 -1 17 3 31 3 15 8 25
11 23 2 -3 1 -17 -3 -31z m45 1 c12 -15 12 -17 -3 -11 -9 3 -16 13 -16 22 0 8
1 13 3 11 1 -2 9 -12 16 -22z m-368 -20 c-10 -9 -11 -8 -5 6 3 10 9 15 12 12
3 -3 0 -11 -7 -18z m216 -109 c-3 -8 -6 -5 -6 6 -1 11 2 17 5 13 3 -3 4 -12 1
-19z m252 -19 c0 13 4 21 8 18 9 -9 -18 -117 -29 -117 -5 0 -7 -10 -4 -22 3
-13 3 -17 0 -10 -10 22 -34 12 -48 -20 l-14 -33 1 32 c0 18 4 30 9 27 14 -9
21 25 9 40 -8 9 -8 16 -2 20 5 4 14 -2 20 -11 5 -10 13 -14 17 -10 5 4 3 17
-4 27 -10 16 -10 20 2 20 8 0 16 -6 19 -12 2 -7 3 12 1 42 -2 46 -2 50 5 20 7
-27 9 -30 10 -11z m-502 -11 c-3 -8 -6 -5 -6 6 -1 11 2 17 5 13 3 -3 4 -12 1
-19z m240 -20 c-3 -8 -6 -5 -6 6 -1 11 2 17 5 13 3 -3 4 -12 1 -19z m-147 2
c0 -5 -4 -10 -10 -10 -5 0 -10 5 -10 10 0 6 5 10 10 10 6 0 10 -4 10 -10z m0
-54 c0 -13 3 -33 7 -43 6 -17 6 -17 -10 -1 -18 18 -23 68 -7 68 6 0 10 -11 10
-24z m-81 -88 c-1 -77 -20 -199 -35 -230 -25 -48 -33 -39 -13 13 11 29 22 82
25 118 7 94 15 151 20 151 2 0 4 -24 3 -52z m461 10 c0 -5 -5 -6 -11 -2 -6 3
-16 0 -21 -7 -8 -11 -8 -10 -4 4 3 10 6 23 6 29 0 6 6 6 15 -2 8 -7 15 -17 15
-22z m-400 -28 c0 -5 -4 -10 -10 -10 -5 0 -10 5 -10 10 0 6 5 10 10 10 6 0 10
-4 10 -10z m376 -31 c-9 -19 -15 -29 -16 -22 0 15 22 64 27 60 2 -2 -3 -19
-11 -38z m-159 -41 c-2 -13 -4 -3 -4 22 0 25 2 35 4 23 2 -13 2 -33 0 -45z
m126 25 c14 -37 12 -78 -3 -53 -4 6 -11 11 -16 10 -9 -1 -21 31 -23 63 -2 31
27 18 42 -20z m-66 -65 c-3 -8 -6 -5 -6 6 -1 11 2 17 5 13 3 -3 4 -12 1 -19z
m24 -19 c-9 -22 -10 -22 -10 -3 -1 11 2 24 6 27 12 12 14 0 4 -24z m31 -11
c-7 -7 -12 -20 -12 -31 0 -10 -4 -16 -9 -13 -4 3 -3 21 3 40 7 23 14 32 20 26
7 -7 6 -14 -2 -22z m-22 -69 c0 -6 -5 -7 -11 -3 -7 4 -9 0 -5 -12 3 -11 2 -32
-3 -49 l-8 -30 -5 32 c-3 20 -1 30 6 26 5 -4 7 1 3 10 -8 21 2 49 14 41 5 -3
9 -10 9 -15z m-2355 -73 c58 -27 117 -31 156 -12 17 9 43 16 56 16 13 0 34 5
45 11 18 10 20 9 15 -6 -4 -9 -7 -21 -7 -25 0 -18 -64 -81 -108 -107 l-44 -26
43 -23 c55 -29 64 -29 90 -3 29 29 34 18 13 -27 -19 -39 -72 -99 -113 -127
-32 -21 -23 -29 37 -35 37 -3 52 0 65 13 16 15 17 14 17 -18 0 -55 -69 -104
-120 -85 -49 18 -147 128 -177 199 l-11 25 47 -23 c54 -28 83 -24 124 15 l27
26 -27 15 c-50 26 -94 64 -124 108 -32 46 -65 118 -52 111 4 -2 26 -12 48 -22z
m513 11 c23 0 32 -5 32 -18 0 -24 -62 -114 -79 -114 -14 0 -81 109 -81 133 0
9 13 11 48 6 26 -4 62 -7 80 -7z m1982 -34 c-6 -21 -14 -63 -16 -93 -3 -30 -9
-67 -15 -82 -6 -15 -8 -40 -4 -57 4 -19 3 -31 -4 -31 -6 0 -12 -36 -14 -87 -2
-49 -3 -16 -1 72 3 153 18 257 45 307 16 31 22 14 9 -29z m1090 34 c0 -24 -74
-137 -90 -137 -10 0 -66 88 -75 118 -6 22 -5 23 14 13 16 -9 27 -9 45 1 27 14
106 18 106 5z m210 -2 c-33 -40 111 -44 177 -5 44 26 47 25 39 -6 -14 -54 -75
-133 -131 -170 -32 -22 -55 -44 -53 -52 2 -8 19 -23 38 -34 42 -22 84 -18 117
14 16 15 23 17 23 7 0 -29 -59 -115 -113 -166 -45 -43 -62 -53 -91 -53 -51 0
-96 41 -96 87 0 34 1 35 18 20 21 -19 83 -22 113 -6 18 9 16 13 -28 42 -47 31
-113 115 -113 144 0 12 3 12 22 -1 12 -9 33 -16 45 -16 23 0 93 29 93 39 0 4
-22 16 -49 29 -31 14 -61 38 -80 64 -43 58 -41 69 13 62 27 -4 46 -2 50 5 4 6
10 11 13 11 3 0 0 -7 -7 -15z m-1893 -27 c-3 -8 -6 -5 -6 6 -1 11 2 17 5 13 3
-3 4 -12 1 -19z m-7 -53 c0 -5 -5 -3 -10 5 -5 8 -10 20 -10 25 0 6 5 3 10 -5
5 -8 10 -19 10 -25z m-40 -34 c0 -5 -7 -12 -16 -15 -14 -5 -15 -4 -4 9 14 17
20 19 20 6z m152 -37 c-2 -13 -9 -24 -14 -24 -6 0 -7 7 -4 16 3 9 6 25 6 37 0
16 3 18 9 9 4 -7 6 -24 3 -38z m-695 -29 c-9 -54 -11 -57 -18 -32 -5 20 -3 40
8 63 9 18 18 33 19 31 1 -1 -3 -29 -9 -62z m1263 55 c0 -5 -5 -10 -11 -10 -5
0 -7 5 -4 10 3 6 8 10 11 10 2 0 4 -4 4 -10z m-2034 -33 c-3 -13 -22 -47 -41
-75 -19 -29 -35 -59 -35 -68 0 -16 -2 -16 -20 1 -23 21 -60 94 -60 120 0 17 1
17 18 2 25 -23 30 -22 86 18 27 19 51 33 54 30 2 -2 2 -15 -2 -28z m2940 -2
c50 -38 56 -40 86 -24 18 10 19 8 13 -13 -15 -51 -85 -133 -85 -98 0 6 -13 30
-29 53 -31 45 -56 117 -40 117 5 0 29 -16 55 -35z m-1660 -14 c0 -11 -3 -18
-7 -16 -3 3 -15 -11 -25 -30 -10 -19 -22 -35 -26 -35 -9 0 -23 -41 -19 -59 1
-8 -2 -10 -10 -5 -9 5 -11 1 -7 -14 4 -15 2 -19 -8 -15 -8 3 -14 1 -14 -5 0
-6 6 -13 13 -15 8 -4 7 -6 -3 -6 -8 -1 -20 -13 -27 -28 -6 -16 -19 -44 -27
-63 l-15 -35 3 31 c4 34 65 154 128 251 22 34 41 63 42 63 1 0 2 -9 2 -19z
m394 -5 c0 -3 -4 -8 -10 -11 -5 -3 -10 -1 -10 4 0 6 5 11 10 11 6 0 10 -2 10
-4z m-746 -89 c-40 -98 -65 -197 -71 -279 -3 -49 -9 -88 -12 -88 -8 0 -2 133
9 183 4 20 5 37 1 37 -4 0 -12 -17 -17 -37 -9 -37 -9 -36 -9 21 -1 32 1 53 3
47 7 -20 20 -11 21 14 1 14 1 36 2 49 2 36 29 43 29 8 0 -21 2 -24 10 -12 11
17 13 80 2 65 -10 -14 -32 -17 -32 -5 0 6 7 10 15 10 8 0 15 5 15 11 0 8 5 8
15 -1 14 -12 20 -7 16 14 -1 5 1 16 5 25 6 14 8 14 11 -2 3 -10 -3 -37 -13
-60z m-186 38 c-3 -3 -9 2 -12 12 -6 14 -5 15 5 6 7 -7 10 -15 7 -18z m929
-17 c-3 -7 -5 -2 -5 12 0 14 2 19 5 13 2 -7 2 -19 0 -25z m-932 -84 l4 -79
-11 55 -11 55 -18 -60 c-12 -37 -17 -46 -14 -25 6 43 -9 20 -18 -28 -5 -24 -3
-31 5 -26 8 5 9 2 3 -12 -4 -10 -10 -31 -13 -47 -2 -15 -8 -30 -13 -33 -5 -3
-9 -17 -9 -32 0 -19 -3 -23 -11 -15 -12 12 4 104 39 223 14 50 16 53 24 30 7
-22 7 -22 5 7 -2 17 1 31 7 30 5 -1 11 7 13 18 3 16 2 17 -6 5 -12 -17 -14
-10 -5 15 13 32 24 -2 29 -81z m12 54 c-3 -7 -5 -2 -5 12 0 14 2 19 5 13 2 -7
2 -19 0 -25z m89 -4 c-4 -9 -9 -15 -11 -12 -3 3 -3 13 1 22 4 9 9 15 11 12 3
-3 3 -13 -1 -22z m-18 -55 c-2 -13 -9 -23 -15 -22 -6 2 -17 -13 -23 -32 -6
-19 -16 -37 -21 -40 -10 -7 -5 10 24 82 22 51 42 58 35 12z m1639 -12 c12 -17
24 -39 26 -47 2 -8 2 -11 -1 -7 -2 4 -10 3 -17 -3 -11 -9 -15 -4 -21 27 -4 21
-11 44 -17 51 -5 6 -6 12 -1 12 5 0 19 -15 31 -33z m-679 -77 c0 -9 -3 -7 -8
5 -5 11 -8 29 -8 40 0 16 2 15 8 -5 4 -14 8 -32 8 -40z m-607 8 c-4 -12 -14
-24 -22 -26 -11 -4 -12 -2 -1 9 6 7 12 21 12 32 0 10 4 16 10 12 5 -3 6 -15 1
-27z m939 -3 c0 -5 -5 -3 -10 5 -5 8 -10 20 -10 25 0 6 5 3 10 -5 5 -8 10 -19
10 -25z m-1399 -16 l-10 -24 0 26 c-1 14 2 29 6 33 12 12 14 -9 4 -35z m480
-6 c-12 -20 -14 -14 -5 12 4 9 9 14 11 11 3 -2 0 -13 -6 -23z m1293 -23 c3
-17 10 -29 16 -25 13 8 3 -216 -10 -229 -6 -6 -10 -21 -10 -34 0 -13 -9 -43
-20 -68 -12 -25 -18 -54 -15 -64 5 -15 2 -18 -8 -14 -9 3 -19 -6 -27 -28 -17
-42 -41 -80 -47 -74 -3 2 10 30 27 62 64 114 83 186 84 319 1 66 -3 137 -7
158 -5 24 -5 37 1 33 5 -3 12 -19 16 -36z m-673 -69 c7 -14 20 -34 28 -43 8
-10 10 -18 5 -18 -16 0 -34 23 -34 42 0 10 -5 15 -12 13 -9 -4 -13 10 -15 47
-1 47 0 49 7 19 4 -18 14 -45 21 -60z m-1933 54 c-3 -3 -9 2 -12 12 -6 14 -5
15 5 6 7 -7 10 -15 7 -18z m534 -12 c-4 -28 -7 -33 -11 -20 -8 23 -18 12 -45
-46 -20 -44 -33 -45 -14 -1 17 39 59 104 67 104 4 0 5 -17 3 -37z m395 0 c-3
-10 -5 -4 -5 12 0 17 2 24 5 18 2 -7 2 -21 0 -30z m1248 -48 c-4 -42 -10 -74
-12 -71 -3 2 -2 39 2 81 4 42 10 74 12 71 3 -2 2 -39 -2 -81z m60 41 c27 -40
27 -66 0 -66 -17 0 -21 26 -5 32 6 2 2 13 -10 25 -11 12 -20 30 -20 39 0 21 1
19 35 -30z m896 21 c-10 -9 -11 -8 -5 6 3 10 9 15 12 12 3 -3 0 -11 -7 -18z
m-458 -52 c8 -22 18 -58 21 -80 4 -22 9 -47 11 -56 3 -9 1 -27 -5 -40 l-10
-24 2 25 c2 41 -13 90 -29 90 -11 0 -13 5 -8 18 16 38 16 51 1 80 -9 17 -16
34 -16 39 0 15 17 -13 33 -52z m-1454 17 c6 -12 6 -23 -1 -33 -8 -11 -9 -10
-4 6 6 20 6 20 -9 1 -8 -11 -15 -27 -15 -36 0 -9 -3 -20 -7 -23 -3 -4 -7 -17
-9 -30 -1 -12 -6 -67 -12 -122 -8 -83 -9 -142 -3 -252 1 -7 8 -13 17 -13 11 0
14 -5 10 -16 -3 -9 -6 -27 -6 -40 0 -49 -17 -22 -28 44 -12 69 -10 323 3 377
8 37 48 155 51 155 2 0 8 -8 13 -18z m558 -14 c-3 -7 -5 -2 -5 12 0 14 2 19 5
13 2 -7 2 -19 0 -25z m-828 -35 c-1 -27 -3 -40 -6 -30 -2 9 -9 17 -14 17 -5 0
-9 5 -9 11 0 5 5 7 10 4 6 -3 10 1 10 9 0 9 -5 16 -11 16 -5 0 -7 5 -4 10 14
23 25 7 24 -37z m398 -7 c-10 -26 -25 -18 -19 10 3 17 8 22 15 15 5 -5 7 -17
4 -25z m540 -3 c-3 -10 -5 -4 -5 12 0 17 2 24 5 18 2 -7 2 -21 0 -30z m48 -42
c-9 -8 -25 21 -25 44 0 16 3 14 15 -9 9 -16 13 -32 10 -35z m-1425 29 c8 12
10 10 9 -10 -1 -43 31 -182 51 -219 43 -84 45 -84 80 -6 17 39 44 107 60 153
21 63 29 77 33 60 4 -12 1 -25 -5 -29 -6 -4 -8 -18 -4 -32 3 -14 2 -29 -4 -32
-6 -4 -7 1 -3 11 4 11 3 15 -5 10 -6 -3 -14 -27 -18 -51 -3 -25 -10 -42 -15
-39 -5 3 -10 -4 -10 -15 -1 -12 -2 -27 -3 -33 -1 -7 -5 -16 -10 -20 -9 -6 -13
-27 -15 -70 -1 -10 -6 -18 -12 -18 -6 0 -9 7 -5 15 3 8 1 15 -4 15 -6 0 -10
-10 -11 -22 -1 -22 -1 -22 -9 2 -8 24 -8 24 -9 3 -1 -31 -51 -34 -51 -3 0 11
7 20 15 20 8 0 15 -6 15 -12 0 -9 4 -8 10 2 14 21 12 30 -5 30 -8 0 -15 8 -15
18 0 9 -5 24 -11 32 -8 12 -9 9 -4 -10 4 -18 3 -21 -3 -10 -10 17 -25 79 -29
125 -5 63 -16 105 -29 116 -8 6 -14 17 -14 23 0 6 5 4 10 -4 9 -13 11 -13 20
0z m717 -12 c-3 -8 -6 -5 -6 6 -1 11 2 17 5 13 3 -3 4 -12 1 -19z m809 6 c-3
-9 -6 -22 -6 -29 0 -16 -25 -26 -45 -19 -8 4 -15 13 -15 22 0 13 3 12 14 -4
17 -22 36 -10 39 25 1 11 5 21 10 21 5 0 6 -7 3 -16z m258 7 c10 -15 -5 -40
-20 -34 -18 7 -18 43 0 43 8 0 17 -4 20 -9z m-74 -21 c0 -5 -4 -10 -10 -10 -5
0 -10 5 -10 10 0 6 5 10 10 10 6 0 10 -4 10 -10z m-2659 -16 c46 -56 152 -69
237 -29 28 13 52 22 52 19 0 -3 -9 -23 -20 -45 -22 -42 -66 -76 -113 -86 -15
-3 -30 -9 -33 -14 -7 -12 47 -37 95 -45 23 -4 41 -8 41 -9 0 -1 -5 -16 -11
-34 -13 -36 -25 -36 -96 5 -67 39 -153 150 -178 232 -7 25 7 29 26 6z m899
-13 c-4 -15 -12 -37 -18 -47 -17 -33 -24 -94 -11 -94 6 0 9 -7 5 -15 -10 -26
5 -105 20 -105 17 0 19 -37 2 -42 -8 -3 -9 -25 -2 -86 7 -56 6 -83 -1 -85 -6
-2 -5 -10 3 -20 8 -9 12 -24 11 -34 -1 -10 3 -29 9 -43 l10 -25 10 25 c8 20
10 13 9 -38 -1 -38 3 -66 10 -70 10 -6 20 -55 23 -112 0 -13 1 -13 10 0 8 11
9 8 4 -12 -7 -31 11 -40 19 -10 3 9 3 -8 1 -38 -2 -30 -1 -48 2 -40 7 16 24
30 37 30 4 0 7 -18 7 -40 0 -26 -5 -40 -13 -40 -10 0 -12 -19 -9 -77 1 -43 7
-80 11 -83 13 -9 21 -54 11 -70 -18 -29 -29 5 -32 102 -2 53 -5 94 -8 92 -2
-3 -10 23 -17 58 -7 34 -22 92 -33 128 -11 36 -22 74 -24 85 -3 11 -14 47 -25
80 -12 32 -23 68 -26 80 -3 11 -12 45 -21 75 -12 41 -17 100 -18 235 -1 186
10 265 39 265 10 0 12 -7 5 -29z m3113 -13 c-37 -94 -108 -176 -195 -223 -52
-28 -65 -26 -70 13 -3 20 6 26 61 45 36 12 66 27 68 33 2 6 -14 14 -36 18 -48
7 -105 53 -120 96 -5 17 -9 30 -7 30 2 0 25 -9 51 -21 69 -31 150 -24 208 18
23 17 45 32 49 32 4 1 0 -18 -9 -41z m-656 -60 c-3 -8 -6 -5 -6 6 -1 11 2 17
5 13 3 -3 4 -12 1 -19z m-2718 -155 c0 -76 5 -171 11 -211 5 -41 7 -78 4 -83
-3 -6 2 -19 11 -29 9 -10 14 -24 9 -31 -4 -7 -3 -10 3 -6 7 4 14 -8 18 -31 4
-20 11 -43 17 -49 6 -7 8 -20 4 -28 -3 -8 -2 -15 2 -15 14 0 43 -77 36 -96 -4
-14 -4 -16 4 -5 8 11 12 10 21 -8 7 -12 9 -27 5 -33 -4 -6 -3 -9 2 -6 5 3 26
-29 48 -70 27 -53 33 -73 22 -69 -9 4 -16 2 -16 -3 0 -6 5 -10 10 -10 6 0 10
-5 10 -11 0 -5 -4 -7 -10 -4 -5 3 -10 -1 -10 -9 0 -9 5 -16 11 -16 5 0 7 -5 4
-10 -13 -20 -34 11 -33 46 1 19 -4 40 -10 46 -9 9 -12 9 -12 0 0 -7 -3 -12 -7
-12 -5 0 -9 23 -11 52 -2 29 -7 57 -12 63 -6 7 -8 15 -5 19 3 3 0 2 -6 -3 -8
-6 -7 -15 1 -31 7 -12 10 -33 7 -46 -2 -13 0 -24 5 -24 5 0 6 -5 2 -11 -9 -15
16 -90 28 -83 5 3 7 2 6 -3 -3 -12 38 -74 44 -67 3 3 5 -3 5 -13 -1 -10 4 -17
11 -15 8 1 11 -2 7 -8 -9 -15 -21 -5 -59 53 -38 59 -69 123 -69 143 0 8 -4 14
-7 14 -4 0 -21 42 -38 93 -61 185 -91 332 -92 452 0 60 21 305 26 305 2 0 3
-62 3 -137z m2248 115 c-3 -8 -6 -5 -6 6 -1 11 2 17 5 13 3 -3 4 -12 1 -19z
m-597 -9 c0 -6 -4 -7 -10 -4 -5 3 -10 11 -10 16 0 6 5 7 10 4 6 -3 10 -11 10
-16z m1087 -229 c-5 -194 -11 -256 -31 -330 -27 -99 -47 -165 -61 -195 -7 -16
-21 -50 -31 -75 -9 -25 -23 -52 -31 -61 -7 -8 -13 -23 -13 -32 0 -8 -6 -22
-12 -29 -7 -7 -22 -30 -32 -51 -11 -20 -23 -37 -28 -37 -4 0 -8 -5 -8 -10 0
-17 -69 -82 -82 -78 -7 3 -13 11 -16 19 -3 12 -2 12 6 0 5 -7 15 -10 22 -6 9
6 9 10 -1 17 -11 7 -9 8 4 4 12 -4 17 -2 14 6 -2 7 -12 12 -21 12 -14 -2 -12
2 6 20 25 24 38 25 18 1 -10 -12 -10 -15 3 -15 8 0 22 11 31 25 20 31 20 39 0
31 -12 -4 -15 0 -12 18 1 13 -3 30 -9 38 -10 11 -8 20 7 43 12 18 20 24 20 15
0 -9 -5 -21 -12 -28 -9 -9 -9 -12 0 -12 6 0 9 -7 6 -15 -4 -8 -2 -15 3 -15 14
0 33 47 27 65 -4 8 -1 15 5 15 6 0 11 7 11 15 0 8 5 15 10 15 6 0 10 -8 10
-18 0 -22 9 -33 22 -26 5 3 4 12 -3 20 -6 7 -15 30 -19 50 -7 32 -3 47 36 123
25 47 42 75 39 62 -5 -16 -4 -21 4 -17 14 9 14 0 -1 -27 -13 -25 -34 -48 -39
-42 -2 2 -4 -12 -5 -31 -1 -43 9 -44 22 -1 5 18 15 31 22 29 8 -1 11 2 7 8 -7
12 3 50 13 49 20 -3 21 3 6 26 -9 14 -12 25 -8 25 5 0 4 4 -3 8 -9 6 -7 15 8
37 l20 30 -4 -40 c-2 -22 -2 -32 0 -22 2 9 8 17 12 17 3 0 8 12 9 27 1 15 6
29 10 32 12 8 22 52 11 45 -5 -3 -9 1 -9 8 0 9 -3 9 -10 -2 -16 -25 -13 6 10
84 23 81 42 278 35 368 -4 60 -4 61 5 18 6 -25 9 -119 7 -210z m-222 130 c-6
-30 -9 -32 -15 -15 l-9 20 1 -20 c0 -25 16 -75 17 -56 1 8 3 12 5 10 3 -3 0
-25 -5 -49 -6 -25 -12 -63 -15 -85 -5 -58 -56 -218 -64 -204 -6 8 -9 7 -13 -2
-3 -8 -6 4 -6 26 0 40 0 40 14 15 16 -27 21 -10 6 19 -6 11 -6 22 1 32 8 11 9
11 4 -3 -3 -10 -2 -19 2 -22 10 -6 37 83 28 91 -3 4 -6 -1 -6 -10 0 -9 -5 -19
-10 -22 -14 -9 -2 43 17 73 9 14 15 58 17 120 2 53 5 113 6 132 3 34 3 34 10
-10 l7 -45 3 60 c3 50 4 53 7 20 3 -21 1 -55 -2 -75z m-258 78 c1 -7 7 -50 14
-95 10 -66 9 -88 -1 -113 -9 -23 -15 -28 -21 -18 -5 7 -9 18 -9 23 0 6 5 3 10
-5 8 -13 10 -13 10 2 0 9 3 25 6 35 5 15 4 15 -5 3 -6 -8 -11 -10 -11 -5 -1 6
-7 -5 -15 -23 -16 -35 -11 -62 11 -62 9 0 14 -11 14 -30 0 -31 -19 -43 -21
-12 -1 16 -2 16 -6 0 -7 -28 -26 -21 -21 7 3 14 2 25 -2 25 -3 0 -6 25 -6 56
0 35 3 50 7 38 10 -25 11 -14 9 88 -1 76 1 87 17 91 10 3 18 5 19 6 0 0 1 -5
1 -11z m-1675 -26 c3 -10 0 -23 -7 -29 -9 -8 -12 -4 -11 18 1 32 11 38 18 11z
m-52 -41 c0 -10 -9 -21 -20 -24 -24 -6 -26 6 -4 27 20 21 24 20 24 -3z m1864
-7 c3 -8 2 -12 -4 -9 -6 3 -10 10 -10 16 0 14 7 11 14 -7z m-4674 -16 c19 -6
50 -29 70 -50 31 -32 43 -38 76 -38 41 1 61 13 107 68 29 36 36 28 13 -17 -22
-42 -80 -89 -128 -102 -55 -16 -54 -15 -33 -39 19 -21 15 -25 -30 -32 -25 -4
-31 -47 -16 -100 15 -49 58 -73 113 -64 30 5 38 4 32 -6 -16 -27 -68 -64 -112
-80 -26 -9 -48 -20 -50 -26 -3 -10 74 -69 125 -96 18 -9 44 -16 58 -16 l26 0
-33 -46 c-35 -49 -33 -50 -58 19 -7 19 -19 29 -39 33 -57 12 -143 106 -166
181 -6 22 -6 23 22 6 33 -19 83 -11 83 12 0 8 -16 32 -35 53 -19 21 -39 51
-45 67 -12 31 -29 105 -25 105 1 0 16 -7 31 -15 66 -34 72 -16 25 76 -38 72
-57 119 -48 119 2 0 19 -5 37 -12z m2600 -8 c0 -13 -7 -20 -20 -20 -13 0 -20
7 -20 20 0 13 7 20 20 20 13 0 20 -7 20 -20z m1560 3 c0 9 5 17 11 17 10 0 5
-13 -14 -38 -8 -11 -12 -11 -18 0 -5 7 -9 19 -9 27 0 11 4 9 15 -5 13 -17 14
-17 15 -1z m2921 -68 c15 -8 38 -15 51 -15 30 0 89 36 95 59 4 15 81 46 91 37
3 -3 -22 -62 -58 -139 -28 -60 -18 -77 31 -53 41 21 39 21 33 -16 -10 -52 -38
-111 -73 -150 -27 -31 -29 -37 -16 -48 8 -7 31 -10 50 -8 40 5 44 -6 19 -53
-28 -55 -84 -108 -126 -120 -34 -9 -43 -17 -61 -59 -12 -27 -24 -50 -27 -50
-6 0 -53 71 -48 74 2 1 21 10 43 20 55 24 145 87 156 108 8 15 6 18 -15 18
-14 0 -37 5 -52 10 -30 12 -104 68 -104 79 0 4 23 7 51 7 45 0 55 4 75 30 25
30 39 78 32 111 -2 12 -15 20 -36 23 -31 5 -32 6 -18 25 21 27 20 35 -3 35
-33 0 -105 36 -132 66 -15 16 -31 45 -37 64 l-12 35 31 -38 c18 -21 44 -44 60
-52z m-2824 33 c-3 -7 -5 -2 -5 12 0 14 2 19 5 13 2 -7 2 -19 0 -25z m-132
-44 c-9 -16 -13 -20 -9 -9 4 11 7 28 8 37 0 10 4 14 9 9 5 -5 2 -21 -8 -37z
m152 -6 c-3 -8 -6 -5 -6 6 -1 11 2 17 5 13 3 -3 4 -12 1 -19z m-192 2 c3 -5 1
-10 -4 -10 -6 0 -11 5 -11 10 0 6 2 10 4 10 3 0 8 -4 11 -10z m282 -12 c-3 -8
-6 -5 -6 6 -1 11 2 17 5 13 3 -3 4 -12 1 -19z m-67 -34 c0 -8 -6 -14 -14 -14
-9 0 -12 7 -9 20 6 22 23 18 23 -6z m291 -7 c-10 -9 -11 -8 -5 6 3 10 9 15 12
12 3 -3 0 -11 -7 -18z m-1577 -14 c-4 -22 -3 -25 5 -13 10 13 11 13 10 0 -1
-8 -4 -26 -8 -40 -7 -24 -8 -23 -14 11 -4 20 -5 44 -1 53 10 25 15 19 8 -11z
m1359 10 c-7 -3 -9 -19 -6 -43 4 -26 2 -40 -6 -40 -12 0 -15 57 -5 84 3 9 11
13 17 9 8 -5 8 -8 0 -10z m-1466 -35 c-3 -7 -5 -2 -5 12 0 14 2 19 5 13 2 -7
2 -19 0 -25z m140 0 c-3 -7 -5 -2 -5 12 0 14 2 19 5 13 2 -7 2 -19 0 -25z
m1223 -38 c0 -5 -4 -10 -10 -10 -5 0 -10 5 -10 10 0 6 5 10 10 10 6 0 10 -4
10 -10z m300 0 c0 -5 -4 -10 -10 -10 -5 0 -10 5 -10 10 0 6 5 10 10 10 6 0 10
-4 10 -10z m-1510 -32 c0 -11 5 -28 10 -39 8 -15 7 -19 -4 -19 -8 0 -19 14
-25 31 -15 44 -14 59 4 53 8 -4 15 -15 15 -26z m-2619 -4 c8 -9 25 -14 45 -12
23 2 40 -4 56 -19 64 -58 169 -85 230 -60 l37 16 -29 -48 c-16 -26 -38 -56
-49 -65 -19 -18 -23 -17 -89 3 -90 27 -159 74 -199 135 -18 26 -33 52 -33 57
0 14 16 11 31 -7z m2839 -5 c0 -6 -4 -7 -10 -4 -5 3 -10 11 -10 16 0 6 5 7 10
4 6 -3 10 -11 10 -16z m719 -25 c-6 -8 -14 -12 -17 -9 -3 2 1 11 8 20 8 9 9
15 2 15 -6 0 -16 -8 -21 -17 -6 -10 -11 -14 -11 -9 0 5 8 18 17 28 15 17 18
17 26 3 5 -10 4 -21 -4 -31z m2856 15 c-12 -35 -85 -109 -135 -134 -45 -23
-159 -60 -164 -53 -1 1 -18 23 -38 48 -52 67 -54 72 -23 60 48 -18 99 -11 172
24 39 19 74 39 77 45 4 6 24 11 45 11 22 0 44 6 51 15 17 20 24 12 15 -16z
m-6586 -45 c-18 -22 -29 -17 -29 16 0 17 7 33 18 39 14 8 18 5 20 -15 2 -14
-2 -32 -9 -40z m1591 59 c0 -5 -5 -15 -10 -23 -7 -11 -12 -12 -21 -3 -6 6 -8
16 -5 22 8 12 36 15 36 4z m3580 -3 c-11 -7 -11 -10 -2 -10 7 0 10 -5 7 -10
-8 -13 -25 -3 -25 16 0 8 8 14 18 14 14 0 15 -2 2 -10z m1583 -12 c6 -8 7 -24
3 -34 -7 -19 -8 -19 -22 0 -17 24 -19 59 -2 54 6 -2 16 -11 21 -20z m-4426
-25 c-3 -10 -5 -4 -5 12 0 17 2 24 5 18 2 -7 2 -21 0 -30z m-1529 -34 c1 -3
15 -5 30 -4 15 2 18 0 7 -2 -10 -3 -24 -12 -30 -20 -10 -13 -15 -12 -33 12
-12 15 -19 31 -16 36 3 5 0 9 -5 9 -6 0 -11 5 -11 12 0 10 50 -27 58 -43z
m5189 14 c-19 -34 -52 -63 -73 -63 -10 0 -14 -6 -11 -14 4 -10 -11 -26 -46
-48 -29 -18 -56 -33 -62 -33 -5 0 -13 -4 -16 -8 -10 -13 -35 2 -59 36 l-22 32
31 -32 c35 -36 46 -41 37 -17 -3 8 -2 12 4 9 6 -3 10 -2 10 4 0 13 49 46 57
38 3 -4 -6 -11 -21 -16 -14 -6 -26 -15 -26 -22 0 -6 6 -8 13 -5 6 3 19 9 29
12 18 7 31 41 17 48 -5 2 -4 3 3 2 7 -2 12 -9 11 -15 -4 -14 14 -14 23 0 3 6
1 15 -6 19 -9 6 -6 10 9 15 18 5 20 9 10 21 -9 11 -8 14 3 14 8 0 33 13 54 29
21 15 40 27 42 26 2 -2 -3 -16 -11 -32z m-4890 -15 c-3 -8 -6 -5 -6 6 -1 11 2
17 5 13 3 -3 4 -12 1 -19z m2287 6 c3 -9 6 -36 6 -60 0 -37 -3 -44 -20 -44
-18 0 -20 7 -20 60 0 45 4 60 14 60 8 0 17 -7 20 -16z m666 6 c0 -5 -4 -10
-10 -10 -5 0 -10 5 -10 10 0 6 5 10 10 10 6 0 10 -4 10 -10z m-3001 -34 c-2
-2 -18 -7 -34 -10 l-30 -6 30 14 c26 12 46 14 34 2z m1641 -1 c0 -8 -2 -15 -4
-15 -2 0 -6 7 -10 15 -3 8 -1 15 4 15 6 0 10 -7 10 -15z m3090 5 c-8 -5 -22
-9 -30 -9 -10 0 -8 3 5 9 27 12 43 12 25 0z m-3449 -27 c-12 -20 -14 -14 -5
12 4 9 9 14 11 11 3 -2 0 -13 -6 -23z m-1511 -13 c0 -5 -2 -10 -4 -10 -3 0 -8
5 -11 10 -3 6 -1 10 4 10 6 0 11 -4 11 -10z m1880 6 c0 -3 -4 -8 -10 -11 -5
-3 -10 -1 -10 4 0 6 5 11 10 11 6 0 10 -2 10 -4z m-1815 -16 c-3 -5 -12 -10
-18 -10 -7 0 -6 4 3 10 19 12 23 12 15 0z m1915 -4 c0 -8 -4 -18 -10 -21 -5
-3 -10 -13 -10 -21 0 -9 -6 -22 -14 -29 -12 -12 -16 -12 -26 0 -7 8 -10 20 -7
27 4 8 6 7 6 -4 1 -10 5 -18 11 -18 5 0 7 14 3 33 -6 29 -5 31 10 18 15 -12
17 -11 17 8 0 11 5 21 10 21 6 0 10 -6 10 -14z m-1909 -30 c5 3 9 0 9 -5 0
-18 -17 -12 -47 15 l-28 26 29 -21 c15 -11 32 -18 37 -15z m3519 14 c0 -5 5
-10 11 -10 5 0 7 5 4 10 -3 6 -1 10 5 10 7 0 9 -7 5 -17 -17 -46 -44 -133 -55
-183 -10 -43 -15 -50 -21 -35 -11 28 -10 55 1 30 8 -18 9 -18 9 6 1 14 -4 30
-10 36 -12 12 -4 78 10 88 5 2 6 -10 2 -28 -13 -60 1 -75 16 -18 8 33 10 57 4
60 -11 7 -2 61 10 61 5 0 9 -4 9 -10z m-210 -37 c-11 -17 -11 -17 -6 0 3 10 6
24 7 30 0 9 2 9 5 0 3 -7 0 -20 -6 -30z m-3170 23 c0 -3 -4 -8 -10 -11 -5 -3
-10 -1 -10 4 0 6 5 11 10 11 6 0 10 -2 10 -4z m1477 -28 c-3 -8 -6 -5 -6 6 -1
11 2 17 5 13 3 -3 4 -12 1 -19z m38 -5 c-4 -10 -10 -26 -12 -35 -6 -22 -23
-24 -23 -3 0 8 5 15 10 15 6 0 10 9 10 20 0 11 5 20 11 20 7 0 8 -7 4 -17z
m-1610 -3 c3 -5 2 -10 -4 -10 -5 0 -13 5 -16 10 -3 6 -2 10 4 10 5 0 13 -4 16
-10z m51 -15 c-9 -9 -16 -13 -16 -8 0 12 22 34 28 28 2 -2 -3 -11 -12 -20z
m1424 -35 c0 -5 -4 -10 -10 -10 -5 0 -10 5 -10 10 0 6 5 10 10 10 6 0 10 -4
10 -10z m120 -21 c0 -5 -9 -9 -20 -9 -19 0 -26 11 -14 23 8 8 34 -3 34 -14z
m45 2 c-8 -14 -25 -14 -25 0 0 5 5 7 10 4 6 -3 10 -1 10 6 0 7 3 10 6 6 3 -3
3 -10 -1 -16z m-168 -38 c-3 -10 -5 -4 -5 12 0 17 2 24 5 18 2 -7 2 -21 0 -30z
m-2102 -18 l-40 -35 18 -31 c9 -17 14 -36 10 -41 -3 -6 -2 -8 4 -5 6 4 27 -3
49 -13 21 -11 46 -20 56 -20 21 0 23 -11 6 -29 -10 -11 -10 -13 0 -7 6 4 12 2
12 -4 0 -6 4 -8 10 -5 6 4 7 -1 3 -11 -4 -10 -8 -13 -10 -7 -3 7 -10 10 -18 7
-16 -7 -101 36 -143 71 -29 24 -92 110 -92 126 0 4 24 5 53 2 43 -4 56 -2 77
16 14 11 30 20 35 20 6 0 -8 -15 -30 -34z m6245 -24 c-20 -40 -70 -101 -70
-86 0 5 -7 0 -16 -11 -8 -10 -12 -13 -8 -5 6 11 3 13 -12 7 -10 -5 -25 -9 -31
-9 -7 0 -13 -6 -13 -13 0 -8 6 -11 15 -8 8 4 15 3 15 0 0 -8 -100 -56 -115
-56 -6 0 -11 10 -12 21 -2 18 0 19 10 6 11 -13 16 -13 47 1 19 8 29 17 22 19
-6 3 -10 8 -7 12 2 5 -8 6 -23 4 -19 -3 -15 1 13 11 21 8 41 13 44 11 2 -3 11
5 19 16 11 16 16 18 23 8 4 -7 6 7 3 32 -2 24 -9 46 -14 47 -6 2 -10 8 -10 13
0 5 10 4 23 -2 16 -7 33 -6 62 5 57 21 58 20 35 -23z m-3963 9 c-3 -10 0 -21
5 -22 7 -3 7 -10 0 -23 -6 -11 -13 -28 -16 -37 -10 -32 -26 -19 -26 21 0 25 5
41 15 45 8 3 15 12 15 21 0 8 3 15 6 15 4 0 4 -9 1 -20z m2347 -17 c-21 -84
-126 -269 -194 -340 -34 -36 -36 -37 -44 -24 -3 4 6 21 20 37 50 57 111 140
129 174 10 19 21 37 25 40 3 3 19 35 35 73 32 72 39 83 29 40z m-2524 7 c0 -5
-5 -10 -11 -10 -5 0 -7 5 -4 10 3 6 8 10 11 10 2 0 4 -4 4 -10z m-523 -152
c14 -20 22 -42 18 -47 -3 -6 -1 -19 5 -28 9 -15 10 -14 5 7 -5 23 -4 23 7 6 7
-10 23 -31 35 -46 12 -15 27 -40 33 -55 6 -15 13 -25 17 -22 3 4 15 -5 25 -19
36 -46 10 -37 -40 13 -63 63 -126 158 -116 174 4 7 3 10 -3 6 -11 -7 -57 88
-68 138 -4 21 4 11 26 -30 17 -33 42 -77 56 -97z m2250 130 c-3 -8 -6 -5 -6 6
-1 11 2 17 5 13 3 -3 4 -12 1 -19z m-4333 -103 c39 -21 42 -38 7 -43 -44 -7
-110 63 -127 133 -7 28 -5 27 39 -20 25 -28 61 -60 81 -70z m4540 93 c12 -20
12 -32 1 -88 l-14 -65 4 70 c3 48 2 62 -4 45 -8 -22 -9 -20 -10 18 -1 48 3 51
23 20z m2710 -5 c-9 -37 -59 -110 -85 -123 -11 -6 -34 -10 -52 -8 l-32 3 35
21 c19 12 58 46 85 76 28 31 51 56 53 57 1 1 -1 -11 -4 -26z m-2927 -85 c0
-80 0 -81 -6 -23 -5 54 -3 105 4 105 2 0 3 -37 2 -82z m20 25 c-3 -10 -5 -4
-5 12 0 17 2 24 5 18 2 -7 2 -21 0 -30z m382 -21 c-6 -18 -15 -32 -21 -32 -5
0 -7 4 -4 9 3 4 10 21 16 36 14 38 23 26 9 -13z m-1129 12 c21 -24 1 -88 -28
-92 -13 -2 -30 2 -38 8 -17 15 -19 71 -2 88 17 17 53 15 68 -4z m-2487 -11 c3
-5 -6 -9 -20 -10 -19 -1 -22 1 -12 8 17 11 26 11 32 2z m1680 -60 c5 -42 -7
-60 -17 -25 -2 9 -2 0 1 -21 4 -31 3 -36 -11 -31 -18 7 -23 84 -6 84 6 0 10
15 10 33 1 43 16 17 23 -40z m-1508 37 c-3 -5 -16 -10 -28 -10 -17 0 -19 -2
-8 -9 8 -5 21 -7 29 -3 29 11 2 -15 -28 -28 -25 -10 -33 -10 -43 0 -10 10 -7
11 13 5 19 -5 21 -4 10 4 -12 9 -13 11 -1 11 8 0 12 3 9 6 -4 3 -16 1 -27 -6
-17 -9 -25 -8 -37 5 -15 15 -14 15 11 9 20 -5 26 -4 21 4 -4 7 -2 10 6 7 7 -3
27 -1 43 4 17 5 31 10 33 10 2 1 0 -3 -3 -9z m5285 6 c0 -7 -40 -14 -44 -7 -3
4 6 8 20 9 13 1 24 0 24 -2z m-5475 -16 c-3 -5 -12 -10 -18 -10 -7 0 -6 4 3
10 19 12 23 12 15 0z m72 -31 l45 -31 -26 -26 c-20 -21 -28 -24 -38 -14 -9 9
-9 15 0 24 17 17 15 26 -14 53 -37 34 -22 31 33 -6z m4943 6 c0 -2 -13 -11
-28 -19 -20 -10 -32 -12 -43 -4 -12 8 -12 9 2 5 8 -3 26 1 40 9 28 15 29 16
29 9z m-5037 -14 c-4 -3 -10 -10 -14 -14 -3 -4 -11 -2 -17 5 -8 10 -5 13 15
14 13 1 21 -1 16 -5z m1397 -6 c0 6 10 -5 21 -23 12 -18 19 -41 16 -53 -3 -12
2 -27 16 -40 24 -22 36 -8 16 19 -7 9 1 4 17 -13 29 -29 29 -31 14 -50 -10
-11 -21 -27 -26 -36 -8 -14 -15 -11 -49 24 -22 22 -32 34 -22 27 25 -18 28
-10 10 28 -12 25 -13 36 -4 45 16 16 14 44 -4 44 -9 0 -14 -6 -11 -12 2 -7 1
-18 -4 -25 -6 -9 -10 -6 -15 10 -4 13 -3 25 4 30 7 3 9 15 5 26 -5 16 -4 16 5
4 6 -8 11 -10 11 -5z m-1335 -5 c3 -5 2 -10 -4 -10 -5 0 -13 5 -16 10 -3 6 -2
10 4 10 5 0 13 -4 16 -10z m-31 -20 c14 -5 26 -14 26 -20 0 -15 -12 -12 -40
10 -28 22 -24 25 14 10z m3255 -49 c-1 -13 -2 -13 -6 2 -2 9 -11 17 -19 17 -8
0 -12 5 -9 10 9 15 35 -8 34 -29z m294 22 c-7 -2 -13 -11 -13 -18 0 -8 -9 -21
-21 -29 -12 -8 -18 -19 -14 -25 3 -7 2 -10 -4 -9 -5 2 -17 -6 -25 -17 -13 -17
-15 -18 -16 -3 0 9 16 33 35 54 19 20 35 41 35 45 0 5 8 9 18 8 10 0 12 -3 5
-6z m823 -11 l103 3 -16 -25 c-9 -14 -42 -65 -73 -115 -31 -49 -78 -123 -103
-162 l-47 -73 -195 0 c-107 0 -195 3 -195 7 0 8 177 302 201 335 15 20 28 23
98 26 45 2 81 8 81 13 0 6 9 5 21 -2 13 -6 61 -9 125 -7z m-939 -84 c-2 -13
-4 -3 -4 22 0 25 2 35 4 23 2 -13 2 -33 0 -45z m-2463 -37 c54 -55 77 -84 73
-95 -4 -9 -10 -16 -14 -16 -4 0 -37 36 -73 80 -36 43 -67 79 -70 79 -3 0 -29
-31 -59 -69 -30 -39 -58 -70 -63 -70 -4 0 8 21 28 48 19 26 47 64 62 84 15 21
29 37 32 38 3 0 41 -36 84 -79z m4216 35 c0 -6 -34 -71 -39 -76 -3 -3 -19 -23
-36 -45 -16 -22 -35 -46 -42 -53 -7 -7 -12 -27 -11 -45 1 -41 -38 -106 -64
-107 -4 0 -5 6 -2 13 3 8 -2 20 -11 27 -13 11 -19 10 -36 -8 -11 -12 -25 -22
-32 -23 -7 -1 -1 -5 13 -9 16 -5 -7 -8 -68 -8 l-93 0 31 56 c18 31 47 72 66
90 19 18 34 36 34 39 0 2 -18 2 -40 -2 -53 -9 -64 0 -41 33 11 15 31 46 45 69
l26 42 117 3 c65 2 133 4 151 5 17 1 32 0 32 -1z m-627 -113 c68 -121 82 -151
69 -138 -16 15 -119 188 -127 213 -13 43 4 21 58 -75z m-3083 37 c13 -8 13
-10 -2 -10 -9 0 -20 5 -23 10 -8 13 5 13 25 0z m2084 -42 c-3 -4 30 -8 74 -8
l79 0 18 -75 c10 -42 16 -77 14 -79 -6 -6 -58 -9 -107 -8 -39 2 -50 8 -100 58
-32 32 -50 52 -42 46 11 -7 18 -6 27 3 10 10 9 14 -3 19 -10 4 -13 2 -8 -6 4
-7 3 -8 -5 -4 -9 6 -9 11 0 22 10 12 8 13 -7 8 -16 -6 -17 -5 -6 7 6 7 12 21
12 30 0 15 4 16 29 6 17 -6 28 -15 25 -19z m-3462 -70 c41 -51 96 -122 123
-158 l47 -65 -47 -3 c-61 -4 -71 0 -95 40 -11 18 -20 28 -20 23 0 -6 7 -20 15
-31 8 -12 12 -24 9 -26 -9 -10 -149 3 -162 15 -8 6 -27 31 -44 56 -28 44 -28
44 -3 16 15 -16 36 -40 46 -52 17 -21 39 -31 39 -18 0 13 -31 65 -39 65 -4 0
-22 14 -40 30 -17 17 -36 28 -41 25 -8 -5 -59 56 -119 143 l-22 32 139 0 140
0 74 -92z m5262 -127 c-6 -6 -34 21 -34 33 0 6 -16 44 -35 85 -55 114 -40 108
19 -9 30 -58 52 -107 50 -109z m-4856 153 c7 -2 11 -8 7 -13 -6 -11 54 -71 72
-71 7 0 15 11 19 25 5 22 9 24 22 13 22 -18 112 -128 112 -136 0 -4 -71 -6
-159 -4 l-159 3 -23 31 c-13 18 -50 62 -82 100 l-58 67 118 -5 c65 -3 124 -8
131 -10z m1640 -12 c3 -18 -1 -22 -22 -22 -19 0 -26 5 -26 18 0 39 43 43 48 4z
m70 1 c3 -19 -1 -23 -22 -23 -21 0 -26 5 -26 26 0 21 4 25 23 22 14 -2 23 -11
25 -25z m540 3 c4 -19 -13 -36 -35 -36 -14 0 -18 42 -6 54 12 12 38 1 41 -18z
m70 -3 c3 -19 -1 -23 -22 -23 -21 0 -26 5 -26 26 0 21 4 25 23 22 14 -2 23
-11 25 -25z m1648 -9 c7 -39 -5 -60 -30 -51 -16 6 -21 42 -10 71 11 28 33 17
40 -20z m-3136 6 c47 -24 54 -35 40 -57 -10 -15 -11 -15 -6 -1 7 25 -39 56
-109 71 -14 3 -12 5 8 6 15 0 45 -8 67 -19z m3867 -33 c-4 -27 0 -48 10 -63
14 -21 14 -24 0 -30 -23 -8 -60 -1 -65 14 -2 6 4 12 12 12 21 0 31 26 17 44
-6 7 -9 21 -6 30 3 9 7 23 10 32 10 31 27 1 22 -39z m-5508 21 c-32 -63 -139
-217 -139 -201 0 15 135 223 146 223 3 0 -1 -10 -7 -22z m1495 10 c-3 -4 -13
-8 -22 -8 -15 0 -15 -2 -2 -11 13 -10 13 -10 -1 -6 -9 3 -21 -4 -28 -14 -6
-11 -15 -18 -20 -15 -4 3 -8 -8 -8 -24 0 -17 5 -30 10 -30 5 0 7 -7 3 -15 -3
-9 3 -20 14 -27 24 -15 26 -38 5 -38 -8 0 -15 7 -15 16 0 8 -4 13 -8 10 -5 -3
-8 5 -7 17 1 12 -4 31 -11 42 -8 11 -14 23 -14 28 0 15 77 84 94 84 8 0 13 -4
10 -9z m110 -20 c7 -11 5 -25 -8 -49 l-17 -34 6 38 c4 25 2 44 -7 54 -11 14
-11 15 1 12 8 -3 19 -12 25 -21z m-67 -30 c-3 -8 -6 -5 -6 6 -1 11 2 17 5 13
3 -3 4 -12 1 -19z m908 2 c11 -18 -6 -50 -26 -50 -13 0 -19 7 -19 23 0 13 3
27 7 30 10 10 31 8 38 -3z m65 -5 c7 -8 10 -22 6 -30 -9 -24 -33 -18 -38 10
-7 37 9 47 32 20z m548 -18 c3 -25 0 -28 -20 -25 -17 2 -24 11 -26 31 -3 25 0
28 20 25 17 -2 24 -11 26 -31z m70 0 c3 -21 -1 -27 -16 -27 -19 0 -37 42 -24
55 14 14 37 -3 40 -28z m-394 -4 c-7 -30 -7 -29 -5 -55 1 -18 41 -27 41 -10 0
5 7 17 16 28 15 18 15 18 5 -3 -15 -29 -14 -32 7 -26 14 3 17 12 14 39 -4 30
-8 34 -33 34 -16 0 -29 5 -29 10 0 6 18 10 40 10 l40 0 0 -55 0 -55 -60 0 -60
0 0 55 c0 43 3 55 15 55 12 0 14 -7 9 -27z m-1064 -20 c0 -15 -71 -36 -83 -24
-4 4 10 11 33 15 37 6 41 9 35 29 -5 17 -4 19 4 7 6 -8 11 -20 11 -27z m4579
2 c3 -17 2 -17 -13 -3 -19 20 -21 31 -3 26 6 -3 14 -13 16 -23z m-4768 -2 c13
-15 12 -15 -11 -3 -34 17 -36 20 -18 20 9 0 22 -7 29 -17z m-1401 -27 c0 -26
-5 -35 -21 -39 -24 -6 -34 12 -25 48 4 16 13 25 26 25 16 0 20 -7 20 -34z
m3720 25 c0 -16 -58 -23 -136 -16 -49 5 -71 11 -63 16 19 12 199 11 199 0z
m-2409 -56 c-2 -39 0 -44 16 -38 15 6 16 5 3 -9 -23 -24 -30 -12 -30 49 0 31
3 53 7 49 4 -3 6 -26 4 -51z m5462 21 c-10 -14 -22 -26 -26 -26 -5 0 2 13 15
29 28 35 37 32 11 -3z m-5339 9 c3 -8 1 -15 -4 -15 -6 0 -10 7 -10 15 0 8 2
15 4 15 2 0 6 -7 10 -15z m5427 -28 c-10 -9 -11 -8 -5 6 3 10 9 15 12 12 3 -3
0 -11 -7 -18z m-5673 -79 c3 -82 1 -88 -17 -88 -18 0 -20 8 -23 68 -3 61 -5
67 -25 70 -22 3 -23 0 -23 -67 0 -64 -2 -71 -20 -71 -19 0 -20 7 -20 90 l0 91
63 -3 62 -3 3 -87z m-2489 45 c2 -2 0 -3 -6 -3 -6 0 -21 9 -34 21 l-24 20 30
-17 c17 -10 32 -19 34 -21z m2857 12 c-9 -9 -16 -13 -16 -8 0 12 22 34 28 28
2 -2 -3 -11 -12 -20z m282 -7 c-2 -18 -11 -24 -35 -26 -30 -3 -33 -1 -33 22 0
23 4 26 36 26 31 0 35 -3 32 -22z m4907 -6 c-3 -3 -11 0 -18 7 -9 10 -8 11 6
5 10 -3 15 -9 12 -12z m-6655 -32 c0 -6 -42 -10 -105 -10 -63 0 -105 4 -105
10 0 6 42 10 105 10 63 0 105 -4 105 -10z m1335 -22 c-4 -14 -13 -25 -20 -25
-11 0 -11 5 1 30 18 33 28 31 19 -5z m2202 0 c-3 -7 -5 -2 -5 12 0 14 2 19 5
13 2 -7 2 -19 0 -25z m113 2 c0 -20 -5 -30 -15 -30 -10 0 -15 10 -15 30 0 20
5 30 15 30 10 0 15 -10 15 -30z m2540 19 c0 -7 -24 -48 -54 -93 -29 -44 -65
-102 -80 -128 -22 -38 -34 -48 -59 -52 -49 -8 -477 -18 -477 -12 0 3 45 71
101 151 l101 145 234 0 c168 0 234 -3 234 -11z m-2390 -19 c0 -13 -5 -18 -15
-14 -8 4 -15 12 -15 20 0 8 7 14 15 14 8 0 15 -9 15 -20z m700 -54 c0 -29 -3
-68 -6 -85 -12 -58 -24 -31 -24 54 0 69 3 85 15 85 11 0 15 -13 15 -54z m156
23 c-3 -17 -6 -49 -6 -70 0 -35 -3 -39 -25 -39 -22 0 -25 5 -25 33 0 17 -3 49
-6 70 l-7 37 38 0 c37 0 37 -1 31 -31z m114 -55 c0 -64 -3 -85 -12 -82 -9 3
-14 32 -16 86 -2 68 0 82 13 82 12 0 15 -15 15 -86z m-2045 59 l40 -10 -45 -6
c-54 -8 -292 -23 -570 -37 -265 -14 -425 -26 -635 -50 -266 -30 -578 -61 -581
-57 -7 6 341 87 456 106 111 19 307 42 495 61 114 11 786 5 840 -7z m1625 -19
c0 -30 -3 -35 -17 -29 -10 4 -39 13 -65 21 -56 17 -64 37 -14 33 19 -2 38 0
42 4 4 4 18 7 31 7 20 0 23 -5 23 -36z m588 -62 c2 -68 0 -82 -13 -82 -12 0
-15 15 -15 86 0 64 3 85 13 82 8 -3 13 -32 15 -86z m-4323 62 c8 -3 15 -1 15
5 0 7 14 11 36 9 26 -2 39 -8 44 -23 8 -19 9 -19 9 3 1 19 6 22 41 22 40 0 40
0 41 -40 3 -83 2 -90 -11 -90 -5 0 -9 3 -9 8 1 4 1 25 0 47 -1 39 -1 39 -17
17 -8 -12 -16 -36 -16 -52 -1 -17 -5 -30 -9 -30 -5 0 -8 16 -7 35 1 19 -2 38
-6 42 -11 12 -29 -15 -30 -46 -1 -29 -4 -31 -36 -30 -23 1 -28 3 -12 6 27 5
28 26 3 50 -10 10 -21 27 -24 38 -4 18 -5 18 -6 -2 -1 -13 -7 -23 -16 -23 -11
0 -15 -11 -15 -36 0 -58 -25 -36 -28 26 -4 63 3 84 23 76 8 -3 22 -9 30 -12z
m4445 -59 c0 -68 -2 -75 -20 -75 -18 0 -20 7 -20 75 0 68 2 75 20 75 18 0 20
-7 20 -75z m90 -10 c0 -78 -2 -85 -20 -85 -18 0 -20 7 -20 85 0 78 2 85 20 85
18 0 20 -7 20 -85z m200 25 c0 -53 -2 -60 -20 -60 -18 0 -20 7 -20 60 0 53 2
60 20 60 18 0 20 -7 20 -60z m70 -1 c0 -52 -2 -60 -17 -57 -32 6 -29 118 2
118 12 0 15 -14 15 -61z m-5962 41 l147 0 105 -127 c58 -70 117 -144 133 -165
l27 -38 -29 0 c-20 0 -34 8 -45 25 -9 14 -24 25 -33 25 -9 0 -22 8 -29 18 -13
16 -14 16 -8 0 6 -16 -3 -18 -99 -18 l-105 0 -33 38 c-62 70 -68 81 -56 85 11
3 -41 77 -56 77 -5 0 -5 -6 -1 -12 5 -8 1 -8 -12 2 -29 22 -30 24 -10 16 16
-5 17 -4 6 9 -7 9 -15 13 -18 10 -7 -7 -62 45 -62 58 0 5 7 6 16 3 9 -3 82 -6
162 -6z m-623 -61 c54 -58 66 -116 37 -182 -20 -45 -38 -64 -50 -52 -3 3 0 10
8 15 12 8 10 10 -7 10 -13 0 -23 -4 -23 -9 0 -4 -10 -8 -22 -7 -40 2 -35 75 5
76 4 0 7 -6 6 -12 -4 -30 3 -38 31 -38 26 0 30 4 30 26 0 14 -4 22 -10 19 -5
-3 -21 5 -34 19 -27 30 -43 33 -50 9 -3 -10 -4 2 -2 27 1 25 6 53 11 63 6 15
4 18 -12 15 -11 -1 -27 3 -36 11 -10 7 -17 12 -18 10 0 -2 -2 -17 -4 -34 -4
-28 -3 -29 11 -11 8 11 14 15 14 10 0 -6 -6 -18 -13 -28 -11 -16 -15 -14 -42
15 -29 30 -29 31 -5 19 14 -7 22 -9 18 -5 -4 4 -2 17 4 29 9 17 8 19 -3 9 -19
-18 -32 -16 -25 4 6 14 3 14 -16 -3 -35 -32 -56 -41 -33 -14 40 46 76 61 134
57 49 -4 58 -8 96 -48z m7842 21 c41 -25 64 -60 68 -105 3 -30 0 -38 -18 -44
-12 -5 -25 -7 -29 -5 -4 3 -4 -12 -1 -32 4 -27 3 -35 -5 -30 -7 4 -12 3 -12
-3 0 -6 -6 -8 -14 -5 -10 4 -16 -3 -19 -23 -3 -15 -3 5 -1 45 4 77 16 112 39
112 8 0 15 4 15 9 0 15 -32 22 -46 10 -11 -9 -14 -7 -14 8 0 19 -17 43 -31 43
-4 0 -6 -17 -4 -37 3 -21 2 -30 -1 -20 -6 18 -24 24 -24 7 0 -5 -8 -6 -17 -3
-13 5 -15 3 -9 -12 4 -11 3 -16 -1 -11 -4 4 -8 17 -8 29 0 13 -7 23 -17 25
-15 3 -18 -4 -18 -37 0 -33 7 -49 35 -80 25 -27 35 -48 35 -71 l0 -32 -31 19
c-72 42 -97 119 -60 191 11 22 31 48 43 56 31 22 106 20 145 -4z m-6777 -71
c0 -46 -3 -59 -15 -59 -12 0 -15 13 -15 58 0 32 3 62 6 65 15 15 24 -8 24 -64z
m-660 51 c0 -12 -157 -247 -171 -256 -16 -9 5 28 74 131 90 136 97 144 97 125z
m754 -49 c-2 -57 -10 -74 -24 -51 -8 12 -8 69 -1 108 1 2 7 2 14 -1 8 -3 12
-22 11 -56z m184 2 c-2 -37 -8 -58 -17 -61 -8 -3 -11 0 -7 7 4 6 1 11 -8 11
-12 0 -16 11 -16 50 0 47 2 50 25 50 25 0 26 -2 23 -57z m116 -5 c-8 -96 -18
-96 -27 0 -5 55 -3 62 13 62 17 0 18 -7 14 -62z m5960 15 c9 -18 14 -33 12
-33 -6 0 -36 55 -36 66 0 11 5 3 24 -33z m-7680 -41 c-19 -39 -27 -42 -13 -6
12 34 20 46 25 41 2 -2 -3 -18 -12 -35z m4371 8 c-5 -8 -46 -10 -136 -6 -80 3
-129 2 -129 -4 0 -6 10 -11 23 -12 12 0 0 -4 -28 -8 -45 -6 -42 -7 35 -9 47
-1 103 -6 125 -10 24 -5 -104 -9 -316 -10 -196 0 -398 -5 -450 -10 -52 -6
-137 -13 -189 -16 -52 -4 -126 -10 -165 -15 -74 -9 -86 -7 -66 13 8 8 43 12
98 12 48 0 79 1 70 3 -20 4 -22 18 -4 25 6 2 -10 2 -38 0 -64 -6 -135 -25
-135 -37 0 -5 -25 -6 -57 -3 -39 3 -51 2 -38 -4 15 -7 9 -8 -22 -6 -24 1 -43
-2 -43 -7 0 -5 31 -6 73 -1 128 12 63 -6 -90 -26 -81 -10 -172 -23 -202 -29
-69 -13 -84 -13 -76 0 3 6 -1 10 -10 10 -11 0 -15 -5 -12 -14 4 -9 -5 -15 -26
-19 -18 -3 -108 -22 -201 -41 -92 -20 -173 -33 -179 -29 -5 3 -7 2 -4 -4 4 -6
-18 -15 -51 -22 -31 -7 -149 -35 -262 -62 -337 -82 -576 -127 -563 -106 3 5
-3 7 -13 3 -37 -11 -270 -73 -299 -80 -74 -15 55 38 238 99 475 158 1022 294
1307 325 98 11 148 18 188 26 17 4 22 1 16 -8 -6 -10 -5 -10 8 0 9 7 61 18
115 23 54 6 112 12 128 14 136 19 288 27 311 16 30 -13 92 -15 79 -2 -6 5 -26
12 -45 14 -19 2 26 2 101 -1 113 -4 140 -2 159 11 19 13 76 15 402 17 278 0
378 -2 373 -10z m-4247 -105 c4 -36 2 -45 -11 -45 -9 0 -19 5 -23 11 -3 6 -17
9 -31 6 -22 -4 -23 -2 -18 23 4 18 1 33 -9 43 -14 13 -13 15 5 20 12 3 18 10
14 16 -3 7 0 8 10 5 12 -5 14 -2 8 12 -3 11 6 4 21 -14 19 -22 30 -48 34 -77z
m3419 99 c-3 -3 -12 -4 -19 -1 -8 3 -5 6 6 6 11 1 17 -2 13 -5z m931 -1 c-10
-2 -26 -2 -35 0 -10 3 -2 5 17 5 19 0 27 -2 18 -5z m65 0 c-7 -2 -19 -2 -25 0
-7 3 -2 5 12 5 14 0 19 -2 13 -5z m80 -10 c-7 -2 -19 -2 -25 0 -7 3 -2 5 12 5
14 0 19 -2 13 -5z m-3869 -26 c8 -14 8 -20 -4 -27 -22 -14 -37 -12 -44 5 -15
40 25 59 48 22z m3989 16 c-18 -2 -48 -2 -65 0 -18 2 -4 4 32 4 36 0 50 -2 33
-4z m244 -23 c250 -29 264 -32 270 -47 12 -31 -13 -37 -114 -25 -54 7 -129 15
-168 18 -38 2 -92 9 -120 14 -41 7 -31 8 55 6 70 -2 88 -1 55 4 -27 4 -41 7
-30 8 14 2 16 5 8 13 -7 7 -57 12 -125 12 -70 1 -98 4 -73 8 64 10 66 10 242
-11z m-307 0 c18 -12 2 -12 -25 0 -13 6 -15 9 -5 9 8 0 22 -4 30 -9z m-25 -20
c39 -5 25 -7 -60 -7 -60 1 -85 3 -55 5 43 3 51 6 35 13 -16 8 -16 8 5 3 14 -3
48 -10 75 -14z m-232 3 c-7 -2 -19 -2 -25 0 -7 3 -2 5 12 5 14 0 19 -2 13 -5z
m320 0 c-7 -2 -19 -2 -25 0 -7 3 -2 5 12 5 14 0 19 -2 13 -5z m84 1 c-3 -3
-12 -4 -19 -1 -8 3 -5 6 6 6 11 1 17 -2 13 -5z m-74 -21 c-7 -2 -21 -2 -30 0
-10 3 -4 5 12 5 17 0 24 -2 18 -5z m-4508 -13 c3 -5 1 -10 -4 -10 -6 0 -11 5
-11 10 0 6 2 10 4 10 3 0 8 -4 11 -10z m6142 -1 c70 -5 182 -18 248 -29 351
-54 346 -53 340 -67 -3 -8 -5 -26 -5 -40 0 -24 -1 -25 -57 -19 -32 3 -69 6
-82 7 -18 1 -21 3 -10 10 9 5 -5 6 -35 2 -36 -4 -47 -3 -42 5 4 7 5 12 2 12
-2 0 -13 3 -23 6 -15 5 -15 4 -3 -5 27 -19 -49 -13 -154 14 -54 14 -107 25
-117 25 -10 0 -20 3 -23 8 -10 17 309 -21 328 -39 6 -5 26 -8 45 -8 24 1 28 3
13 6 -12 2 -20 9 -17 14 4 5 -9 9 -27 9 -18 0 -52 5 -76 10 -23 6 -67 11 -96
13 -30 1 -52 5 -49 10 2 4 -9 7 -26 7 -17 0 -70 9 -118 21 -48 11 -118 21
-155 21 -38 1 -68 5 -68 10 0 11 53 10 207 -3z m-5547 -27 c0 -5 -45 -10 -100
-11 -66 -1 -100 1 -100 8 0 7 36 11 100 11 55 0 100 -4 100 -8z m5520 -12 c0
-5 -7 -7 -15 -4 -8 4 -15 8 -15 10 0 2 7 4 15 4 8 0 15 -4 15 -10z m-6261 -41
c-16 -10 -23 -4 -14 10 3 6 11 8 17 5 6 -4 5 -9 -3 -15z m7471 -64 c0 -60 -3
-75 -15 -75 -12 0 -15 15 -15 75 0 60 3 75 15 75 12 0 15 -15 15 -75z m70 0
c0 -60 -3 -75 -15 -75 -12 0 -15 15 -15 75 0 60 3 75 15 75 12 0 15 -15 15
-75z m70 0 c0 -60 -3 -75 -15 -75 -12 0 -15 15 -15 75 0 60 3 75 15 75 12 0
15 -15 15 -75z m290 42 c0 -4 -9 -3 -20 3 -11 6 -20 15 -20 20 0 6 9 5 20 -2
11 -7 20 -16 20 -21z m-2380 14 c0 -6 -4 -13 -10 -16 -5 -3 -10 -2 -10 4 0 6
-7 8 -15 5 -8 -4 -15 -1 -15 5 0 6 11 11 25 11 14 0 25 -4 25 -9z m88 -7 c12
-4 22 -13 22 -20 0 -8 8 -14 18 -14 15 0 15 2 2 11 -13 8 -12 10 3 7 25 -4 17
-24 -8 -21 -57 6 -87 16 -74 25 10 7 5 8 -13 4 -16 -4 -28 -2 -28 4 0 11 42
13 78 4z m-1068 -38 c327 -31 684 -83 881 -129 57 -14 124 -28 149 -31 54 -8
90 -30 90 -55 0 -40 -21 -43 -162 -26 -196 23 -901 92 -1143 111 -259 20 -832
15 -1070 -10 -385 -41 -688 -91 -1005 -166 -293 -69 -270 -66 -277 -41 -7 26
-34 27 -156 5 -94 -16 -117 -11 -117 27 0 20 -9 17 175 60 77 17 149 38 160
45 26 17 214 66 399 104 249 51 670 105 961 124 161 10 949 -3 1115 -18z
m2550 -16 c0 -36 -3 -40 -25 -40 -20 0 -25 6 -31 35 -8 46 -27 46 -22 0 3 -28
1 -35 -11 -33 -10 2 -17 16 -19 41 l-3 37 55 0 56 0 0 -40z m130 5 c0 -19 5
-35 10 -35 6 0 10 16 10 35 0 32 2 35 30 35 29 0 30 -2 30 -45 l0 -44 -55 0
-55 1 0 44 c0 32 4 44 15 44 10 0 15 -11 15 -35z m-1453 10 c104 -22 375 -100
410 -118 33 -18 51 -47 28 -47 -7 0 -44 11 -82 24 -37 13 -95 32 -128 41 -33
10 -78 23 -100 31 -22 7 -63 18 -91 24 -28 6 -68 17 -90 25 -33 12 -35 14 -14
15 23 1 23 2 5 10 -30 13 -14 12 62 -5z m-4777 -45 c0 -36 -3 -40 -24 -40 -36
0 -53 64 -18 73 38 10 42 7 42 -33z m-390 -10 c0 -36 -3 -40 -24 -40 -28 0
-31 3 -41 48 -6 31 -6 32 29 32 35 0 36 -1 36 -40z m200 11 c0 -46 -10 -61
-39 -61 -16 0 -21 3 -14 8 10 6 10 12 -2 28 -26 35 -19 54 20 54 32 0 35 -2
35 -29z m6220 -102 c80 -12 205 -32 279 -45 184 -34 495 -57 386 -29 -43 11
20 13 447 13 l498 1 15 -22 c19 -27 21 -57 3 -39 -13 13 -29 16 -27 5 1 -5 0
-19 -1 -33 -2 -23 -3 -23 -9 5 l-6 30 -660 0 c-363 0 -689 -2 -725 -3 -36 -2
-81 -1 -100 2 -28 5 -30 4 -10 -3 20 -7 21 -9 5 -10 -21 -1 -377 110 -371 116
2 2 39 -3 82 -13 44 -9 92 -16 107 -16 19 -1 24 -4 16 -9 -8 -4 -10 -11 -6
-15 3 -4 13 -1 22 6 12 10 31 10 91 1 43 -6 79 -9 81 -7 5 5 -6 7 -177 36 -69
11 -144 25 -167 30 -23 6 -59 10 -80 11 -21 1 -49 5 -63 9 -45 15 220 -1 370
-21z m-7190 -70 c-22 -7 -21 -8 5 -2 17 3 106 8 198 9 155 3 168 2 165 -14 -2
-9 -16 -20 -33 -23 -17 -4 -236 -7 -487 -8 l-457 -1 6 -47 c3 -27 8 -653 12
-1393 3 -740 7 -1346 9 -1348 1 -2 6 -1 10 2 4 2 14 1 22 -5 13 -7 12 -9 -2
-9 -10 0 -18 -6 -18 -12 0 -7 -5 -5 -11 5 -5 9 -15 17 -21 17 -6 0 -3 -9 7
-20 12 -13 23 -17 33 -11 8 5 31 5 51 0 19 -4 112 -5 206 -1 102 4 152 9 125
12 -87 11 612 22 1163 19 315 -2 557 0 557 5 0 5 23 6 51 4 36 -4 58 -12 75
-30 l25 -24 -1140 -2 c-1084 -1 -1141 0 -1162 17 l-22 18 0 1413 c0 1193 2
1414 14 1421 21 13 32 11 25 -6 -3 -8 -1 -15 4 -15 6 0 10 5 10 10 0 6 7 10
15 10 8 0 15 5 15 10 0 6 102 10 288 9 179 -1 278 -4 262 -10z m6551 -26 c12
-16 12 -17 -1 -7 -8 6 -22 14 -30 17 -13 5 -12 6 1 6 9 1 23 -7 30 -16z m-40
-50 c13 -16 12 -17 -3 -4 -10 7 -18 15 -18 17 0 8 8 3 21 -13z m-1766 -37
c267 -29 415 -52 429 -66 5 -5 -160 -9 -400 -9 -225 -1 -458 -4 -519 -7 -60
-3 -330 -1 -600 4 -585 12 -665 24 -363 57 212 23 418 45 458 49 19 2 197 3
395 1 314 -2 391 -5 600 -29z m1385 5 c16 -31 12 -49 -14 -66 -28 -18 -49 -12
-66 19 -9 18 -9 29 -1 45 15 28 66 29 81 2z m2669 -73 c1 -21 -3 -38 -9 -38
-6 0 -10 25 -9 58 0 41 3 51 9 37 5 -11 9 -37 9 -57z m-7005 49 c21 -16 18
-45 -6 -61 -35 -22 -74 27 -48 59 15 18 31 19 54 2z m7000 -237 c5 -45 4 -60
-4 -50 -9 13 -15 129 -6 119 2 -2 6 -33 10 -69z m34 -972 c0 -613 -4 -978 -9
-885 -4 87 -10 161 -13 164 -3 4 -6 -66 -6 -155 0 -89 -4 -162 -8 -162 -8 0
-9 1011 -1 1205 3 73 4 70 9 -45 l6 -125 2 181 c1 100 4 210 6 245 5 58 4 56
-8 -21 -13 -81 -13 -70 -13 200 1 157 3 248 4 203 2 -46 8 -83 13 -83 6 0 10
64 10 160 0 88 2 160 5 160 3 0 4 -469 3 -1042z m-8313 949 c342 -3 376 -5
450 -25 364 -99 576 -338 592 -667 18 -354 -188 -614 -554 -701 -55 -13 -149
-17 -506 -21 l-438 -5 3 -323 3 -323 33 -47 33 -47 -33 8 c-18 4 -40 7 -48 8
-8 1 -17 4 -20 7 -3 3 -36 16 -73 29 -79 26 -107 24 -227 -15 -135 -43 -129
-43 -88 2 20 23 41 50 47 61 17 31 17 1922 1 1953 -7 12 -32 43 -55 68 l-43
46 276 -2 c153 -2 444 -4 647 -6z m1775 -52 l-60 -61 0 -962 c0 -704 3 -969
11 -985 7 -12 25 -38 40 -58 16 -20 29 -40 29 -43 0 -3 -24 3 -54 15 -75 27
-191 59 -219 59 -19 0 -148 -40 -210 -65 -12 -5 -7 8 18 45 l35 52 0 977 c0
1087 6 991 -68 1057 l-33 29 285 0 285 0 -59 -60z m740 -153 c120 -200 488
-804 613 -1005 33 -54 64 -100 69 -103 4 -3 8 278 8 625 l0 630 -32 37 -33 37
34 -6 c18 -4 126 -7 238 -7 l205 0 -26 -31 -26 -31 0 -1046 c0 -720 -3 -1046
-11 -1044 -5 1 -32 18 -59 36 -57 39 -61 39 -169 -10 -41 -19 -75 -33 -76 -32
-1 2 -10 19 -20 37 -28 56 -511 871 -649 1096 -51 83 -97 161 -104 175 -8 19
-10 -130 -9 -610 2 -587 3 -637 20 -667 10 -18 16 -33 14 -33 -2 0 -50 16
-107 35 -57 19 -114 35 -126 35 -13 0 -71 -16 -130 -35 -58 -19 -108 -35 -110
-35 -2 0 11 21 29 46 l32 46 0 998 0 999 -32 33 c-18 19 -33 36 -33 38 0 3 82
4 183 2 l182 -3 125 -207z m2749 193 c191 -43 343 -124 445 -237 31 -34 56
-66 56 -72 0 -6 -21 -20 -48 -30 -106 -43 -216 -140 -275 -244 l-23 -41 -17
47 c-20 59 -77 127 -128 152 -91 47 -157 55 -449 55 -228 -1 -287 -4 -345 -18
-97 -25 -148 -57 -174 -110 -26 -54 -26 -80 -1 -133 47 -97 157 -133 715 -234
443 -81 631 -150 774 -286 113 -106 164 -229 164 -399 2 -320 -232 -522 -672
-580 -141 -19 -465 -22 -610 -5 -292 33 -537 150 -668 321 -42 55 -113 167
-113 179 0 4 29 15 64 24 127 35 253 114 337 212 l37 43 6 -57 c14 -115 101
-244 192 -283 99 -42 196 -54 439 -54 328 1 482 32 567 117 38 38 40 43 36 89
-9 92 -77 145 -243 194 -50 14 -232 55 -406 90 -341 69 -402 83 -524 121 -324
102 -500 293 -498 544 1 328 229 549 628 610 33 5 195 7 360 5 236 -2 316 -6
374 -20z m1551 -38 l-60 -59 -2 -221 c-5 -390 -3 -647 4 -647 4 0 17 13 30 29
13 16 77 88 143 162 66 73 179 199 250 279 72 80 204 228 295 328 l164 182
192 0 c106 0 201 3 211 7 12 5 6 -7 -17 -34 -53 -62 -666 -749 -726 -813 l-24
-26 43 -74 c24 -41 163 -273 308 -515 146 -242 293 -488 328 -546 34 -58 74
-118 87 -133 14 -15 19 -26 12 -26 -7 0 -64 16 -127 36 -72 23 -124 34 -142
30 -26 -5 -102 -36 -144 -58 -10 -6 -21 -7 -22 -2 -2 5 -131 220 -288 479
-156 259 -288 476 -292 483 -6 10 -44 -23 -136 -115 -70 -72 -135 -140 -144
-153 -14 -20 -15 -54 -9 -304 7 -274 7 -282 32 -323 13 -23 34 -49 46 -58 l22
-15 -22 0 c-13 0 -32 5 -43 10 -30 17 -187 60 -216 60 -14 0 -75 -16 -134 -35
-122 -39 -158 -45 -121 -19 13 9 37 34 53 57 l29 40 0 964 c0 1070 5 991 -69
1054 l-39 34 294 0 294 0 -60 -58z m1456 -2384 c-4 -9 -35 -14 -108 -15 l-103
-2 98 -3 c94 -4 125 -15 70 -27 -16 -4 -44 -2 -63 4 -45 13 -100 13 -100 0 0
-15 -1214 -13 -1337 2 -75 9 -98 9 -101 0 -4 -14 -637 -18 -646 -4 -11 18 53
40 132 45 103 8 614 -5 552 -14 -42 -6 -41 -6 20 -7 40 -1 60 2 51 7 -8 5 313
9 749 10 420 1 767 4 772 7 4 3 9 87 10 187 l3 182 2 -180 c2 -98 1 -185 -1
-192z m21 25 c-3 -8 -6 -5 -6 6 -1 11 2 17 5 13 3 -3 4 -12 1 -19z m20 -30
c-3 -8 -6 -5 -6 6 -1 11 2 17 5 13 3 -3 4 -12 1 -19z m-6483 -59 c-6 -11 -24
-2 -24 11 0 5 7 7 15 4 8 -4 12 -10 9 -15z m-349 1 c3 -5 1 -10 -5 -10 -6 0
-4 -10 6 -25 15 -23 35 -34 33 -17 -4 26 1 34 16 22 8 -7 12 -17 8 -23 -4 -6
0 -8 10 -4 10 3 17 3 17 -1 0 -4 18 -18 39 -32 35 -21 38 -27 29 -44 -10 -20
-9 -20 7 -5 16 15 21 14 68 -18 29 -20 51 -40 49 -45 -2 -6 4 -8 11 -5 24 9
39 -14 19 -30 -15 -13 -15 -13 5 -4 28 14 36 14 27 -1 -4 -7 -3 -8 4 -4 9 5
208 -95 242 -122 3 -2 -4 -10 -14 -18 -11 -8 -15 -14 -9 -14 7 0 18 7 27 15
13 14 18 13 45 -3 17 -10 28 -22 24 -26 -4 -4 0 -4 8 -1 9 3 54 -9 100 -28
159 -66 485 -167 537 -167 13 0 21 -3 19 -7 -3 -5 15 -8 39 -8 28 0 49 -6 61
-17 20 -21 18 -24 -22 -33 l-30 -6 25 15 25 15 -31 1 c-18 0 -54 7 -82 16 -40
13 -57 14 -83 5 -22 -8 -36 -8 -43 -1 -7 7 -3 10 11 10 12 0 25 5 29 11 7 12
-4 10 -63 -6 -10 -3 -4 1 12 9 31 15 18 21 -22 10 -13 -4 -20 -10 -17 -15 6
-11 -8 -12 -32 -2 -16 6 -16 7 2 14 17 7 17 8 1 8 -10 1 -16 5 -13 10 4 5 -12
12 -34 16 -22 4 -40 11 -40 16 0 5 -6 9 -13 9 -32 0 -10 -29 30 -41 24 -6 41
-14 39 -17 -5 -4 -235 66 -246 75 -3 3 3 10 12 17 15 11 13 13 -14 24 -29 11
-30 10 -14 -7 32 -35 0 -31 -100 13 -179 78 -289 136 -257 136 7 0 14 -4 17
-9 3 -5 14 -11 25 -14 25 -6 21 22 -5 35 -18 9 -18 9 0 -6 16 -13 17 -16 4
-16 -19 0 -41 24 -31 34 4 4 0 4 -10 0 -12 -4 -17 -1 -17 10 0 16 -2 16 -21 2
-20 -13 -25 -13 -52 1 -23 12 -27 17 -16 24 20 12 29 11 27 -3 -2 -7 8 -13 22
-15 14 -1 17 0 7 3 -9 3 -15 10 -12 15 7 10 2 11 -44 13 -16 0 -27 -3 -24 -8
3 -4 -6 0 -21 9 -21 14 -24 20 -15 31 13 16 -2 19 -17 4 -7 -7 -17 -5 -30 6
-15 12 -16 15 -2 10 9 -2 22 2 30 11 11 14 10 16 -7 11 -11 -3 -27 -9 -36 -12
-9 -4 -25 2 -40 14 -23 20 -23 21 -2 15 12 -3 24 -1 28 4 4 7 -6 9 -27 7 -32
-4 -55 8 -117 59 -71 58 -104 93 -97 103 9 15 23 15 31 2z m1430 -10 c0 -13
-67 -15 -535 -16 -294 -1 -519 2 -500 6 l35 7 -30 3 -30 2 30 8 c17 4 255 7
530 6 437 -1 500 -3 500 -16z m1375 0 c0 -11 -4 -20 -10 -20 -5 0 -7 7 -4 15
4 8 1 15 -5 15 -6 0 -11 -5 -11 -12 0 -6 -3 -9 -6 -5 -9 9 5 27 22 27 8 0 14
-9 14 -20z m1061 -1 c-22 -18 -43 -19 -539 -19 -511 0 -515 0 -496 19 18 19
37 20 539 20 517 0 520 0 496 -20z m403 12 c7 -11 -32 -47 -41 -38 -4 4 2 14
13 23 21 17 13 15 -28 -5 -27 -14 -48 -54 -22 -44 8 3 11 9 8 14 -6 10 9 12
19 2 11 -11 -30 -33 -49 -26 -13 5 -16 3 -11 -10 8 -20 -14 -39 -33 -27 -7 5
-24 4 -38 -1 -22 -8 -23 -8 -13 5 7 9 28 21 46 28 19 6 32 15 29 20 -3 4 2 5
11 2 11 -4 14 -2 10 9 -11 27 84 73 99 48z m-2145 -73 c26 -124 110 -238 210
-285 l38 -18 -26 -11 c-14 -6 -35 -7 -46 -3 -11 4 -32 10 -48 14 -37 8 -104
69 -129 119 l-20 40 -20 -39 c-31 -62 -87 -115 -121 -115 -19 0 -26 -4 -21
-12 4 -7 3 -8 -4 -4 -6 4 -20 3 -29 -3 -12 -6 -28 -5 -48 3 l-29 12 47 23 c63
31 137 104 165 164 12 26 30 79 40 117 9 38 20 66 23 62 3 -4 11 -33 18 -64z
m407 -83 c33 -33 42 -49 59 -104 5 -17 4 -21 -5 -16 -8 5 -11 2 -7 -11 29
-108 29 -113 17 -163 -6 -27 -18 -55 -26 -62 -17 -14 -19 2 -2 19 9 9 9 12 0
12 -7 0 -12 4 -12 10 0 5 5 9 12 7 6 -1 13 7 15 18 3 12 1 16 -4 8 -4 -6 -8
23 -8 65 0 81 -14 130 -60 202 -39 62 -32 68 21 15z m1588 24 c-4 -7 -121 -85
-179 -120 -22 -13 -46 -22 -54 -21 -7 2 -11 -1 -8 -5 5 -8 -229 -143 -247
-143 -4 0 -4 6 -1 13 3 6 -2 2 -11 -10 -9 -13 -20 -23 -25 -23 -5 0 -33 -11
-63 -25 -95 -43 -217 -85 -228 -79 -6 4 -8 2 -5 -3 11 -17 -100 -44 -130 -32
-18 7 -36 6 -56 -1 -17 -5 -41 -10 -53 -10 -13 0 -24 -4 -24 -9 0 -13 -71 -22
-89 -11 -14 8 -13 10 4 10 11 1 27 3 35 5 8 3 41 11 72 19 165 41 416 135 581
217 54 27 105 49 113 49 8 0 12 4 9 10 -3 5 7 12 22 16 15 4 30 10 33 13 3 4
23 17 45 30 36 21 40 21 51 6 12 -16 14 -16 36 -1 12 9 20 16 18 17 -3 0 -13
2 -23 4 -9 2 -15 -1 -11 -6 3 -5 1 -9 -5 -9 -31 0 -13 24 50 63 54 34 80 44
109 43 21 0 36 -4 34 -7z m-2438 -34 c-3 -8 -1 -15 5 -15 5 0 0 -18 -11 -40
-11 -21 -20 -47 -20 -57 0 -13 -3 -14 -8 -5 -5 7 -8 -31 -8 -83 0 -52 3 -95 7
-95 6 0 39 -78 39 -93 0 -4 -3 -7 -7 -7 -12 0 -54 70 -48 80 3 4 0 10 -6 12
-16 5 -23 118 -10 178 7 30 23 74 37 97 24 42 42 58 30 28z m-843 -21 c3 -4
-1 -13 -9 -22 -17 -16 -42 -2 -30 17 8 12 29 15 39 5z m2594 -9 c6 -18 -150
-90 -174 -81 -8 3 -12 2 -9 -2 7 -12 -73 -33 -132 -35 -29 -1 -52 -5 -52 -8 0
-11 -39 -18 -62 -11 -21 6 -21 7 7 13 29 6 28 7 -10 9 -35 2 -31 4 40 20 44
10 91 16 105 13 20 -4 22 -2 10 6 -13 9 -12 11 5 11 11 1 70 19 130 40 111 39
136 43 142 25z m-2497 -30 c56 -21 218 -62 297 -75 71 -11 106 -31 83 -45 -14
-9 -168 14 -176 26 -3 5 -22 9 -42 9 -50 0 -132 23 -181 51 -46 25 -50 38 -5
14 16 -8 38 -15 49 -15 11 1 -7 12 -40 26 -33 15 -62 28 -65 31 -7 7 36 -5 80
-22z m1996 -100 c-30 -16 -43 -14 -31 4 3 6 18 11 33 11 l27 0 -29 -15z
m-2501 -5 c3 -6 -1 -7 -9 -4 -18 7 -21 14 -7 14 6 0 13 -4 16 -10z m2522 -16
c-3 -3 -12 -4 -19 -1 -8 3 -5 6 6 6 11 1 17 -2 13 -5z m-997 -80 c22 -15 38
-30 35 -34 -2 -3 2 -7 10 -7 8 0 13 5 12 11 -1 5 7 10 18 11 14 0 21 -9 26
-32 3 -18 3 -33 -2 -33 -9 0 -13 22 -10 48 3 19 -5 14 -25 -15 -15 -24 -15
-26 -1 -14 17 14 21 6 20 -36 -1 -7 3 -10 8 -7 5 3 9 0 9 -7 0 -9 4 -8 15 1
11 9 12 17 5 30 -13 25 -13 51 0 29 5 -9 11 -25 13 -35 1 -11 8 -28 15 -39 10
-18 11 -18 12 11 0 29 46 114 69 128 13 9 15 -6 2 -20 -7 -5 -1 -9 15 -9 16 0
23 4 19 14 -4 9 0 11 11 7 20 -8 41 4 24 14 -6 4 4 7 22 8 31 1 32 0 13 -14
-42 -29 -78 -71 -108 -122 -21 -39 -32 -50 -38 -40 -5 7 -9 19 -9 27 0 11 3
11 18 0 16 -13 16 -12 1 6 -9 11 -14 27 -12 35 4 13 3 13 -5 1 -6 -8 -9 -29
-7 -48 2 -18 -1 -36 -6 -39 -5 -3 -9 -13 -9 -22 0 -13 2 -13 15 4 19 26 19 7
-4 -78 -19 -74 -31 -95 -31 -55 0 44 -48 180 -81 230 -17 26 -49 63 -72 82
-48 41 -42 45 13 9z m586 -132 c-9 -10 -16 -12 -16 -5 0 7 4 14 10 18 5 3 7
13 4 23 -5 14 -4 14 6 -2 10 -14 9 -21 -4 -34z m614 -33 c0 -5 -4 -8 -9 -5 -5
4 -12 0 -14 -6 -3 -8 -6 -6 -6 5 -1 9 6 17 14 17 8 0 15 -5 15 -11z m-40 -19
c0 -5 -7 -10 -16 -10 -8 0 -12 5 -9 10 3 6 10 10 16 10 5 0 9 -4 9 -10z m-160
-14 c28 -11 42 -11 72 0 20 7 39 9 43 6 4 -4 -13 -12 -36 -17 -42 -11 -117 0
-135 18 -11 11 17 7 56 -7z m-1690 -16 c-8 -5 -24 -9 -35 -9 l-20 0 20 9 c11
5 27 9 35 9 13 1 13 0 0 -9z m1617 4 c-3 -3 -12 -4 -19 -1 -8 3 -5 6 6 6 11 1
17 -2 13 -5z m-1527 -26 c10 -6 5 -7 -15 -2 -16 4 -41 7 -54 7 -17 -1 -20 1
-10 8 15 9 54 2 79 -13z m1557 9 c0 -7 -13 -14 -31 -15 l-31 -1 30 13 c17 8
30 15 31 15 0 1 1 -5 1 -12z m40 -3 c-3 -3 -12 -4 -19 -1 -8 3 -5 6 6 6 11 1
17 -2 13 -5z"/>
<path d="M4930 7821 c0 -6 4 -13 10 -16 6 -3 7 1 4 9 -7 18 -14 21 -14 7z"/>
<path d="M5165 7760 c-3 -5 -1 -10 4 -10 6 0 11 5 11 10 0 6 -2 10 -4 10 -3 0
-8 -4 -11 -10z"/>
<path d="M5034 7713 c1 -18 4 -33 8 -33 4 0 10 -9 13 -20 3 -11 10 -20 15 -20
13 0 22 37 15 60 -3 11 -15 20 -25 20 -10 0 -20 6 -23 13 -2 6 -4 -3 -3 -20z"/>
<path d="M5151 7724 c0 -11 3 -14 6 -6 3 7 2 16 -1 19 -3 4 -6 -2 -5 -13z"/>
<path d="M5210 7431 c0 -6 5 -13 10 -16 6 -3 10 1 10 9 0 9 -4 16 -10 16 -5 0
-10 -4 -10 -9z"/>
<path d="M5231 7378 c-1 -10 -5 -18 -11 -18 -5 0 -10 -5 -10 -12 0 -8 6 -7 16
4 9 9 14 22 11 30 -4 9 -6 7 -6 -4z"/>
<path d="M5231 7294 c0 -11 3 -14 6 -6 3 7 2 16 -1 19 -3 4 -6 -2 -5 -13z"/>
<path d="M5202 7235 c0 -16 4 -43 8 -60 l8 -30 0 35 c0 19 -4 46 -8 60 -8 24
-8 24 -8 -5z"/>
<path d="M5227 7254 c-4 -4 -7 -14 -7 -23 0 -11 3 -12 11 -4 6 6 10 16 7 23
-2 6 -7 8 -11 4z"/>
<path d="M5145 6963 c-8 -20 -13 -38 -10 -41 3 -3 5 -3 5 0 0 3 7 22 15 42 8
20 13 36 10 36 -2 0 -12 -16 -20 -37z"/>
<path d="M5098 6855 c-3 -13 -2 -22 2 -20 11 7 20 45 10 45 -4 0 -10 -11 -12
-25z"/>
<path d="M4935 6579 c-4 -6 -5 -12 -2 -15 2 -3 7 2 10 11 7 17 1 20 -8 4z"/>
<path d="M4894 6504 c-1 -25 3 -40 7 -33 4 7 5 19 1 27 -4 11 -1 13 7 7 11 -6
11 -3 1 16 -7 13 -13 25 -14 26 -1 1 -2 -18 -2 -43z"/>
<path d="M4850 6413 c0 -15 5 -35 11 -43 8 -12 9 -10 4 9 -5 16 -4 21 4 17 16
-10 13 13 -4 30 -13 14 -15 12 -15 -13z"/>
<path d="M4831 6390 c0 -8 6 -28 14 -45 17 -39 18 -21 0 25 -7 19 -14 28 -14
20z"/>
<path d="M4829 6282 c-3 -24 -2 -48 2 -54 9 -14 16 56 8 79 -4 12 -8 4 -10
-25z"/>
<path d="M4812 6280 c0 -14 2 -19 5 -12 2 6 2 18 0 25 -3 6 -5 1 -5 -13z"/>
<path d="M4305 6280 c3 -5 8 -10 11 -10 2 0 4 5 4 10 0 6 -5 10 -11 10 -5 0
-7 -4 -4 -10z"/>
<path d="M5920 6251 c0 -6 5 -13 10 -16 6 -3 10 1 10 9 0 9 -4 16 -10 16 -5 0
-10 -4 -10 -9z"/>
<path d="M4782 6223 c2 -10 10 -18 18 -18 8 0 18 -11 22 -25 6 -20 7 -18 3 9
-3 18 -5 37 -5 42 0 5 -9 9 -21 9 -14 0 -19 -5 -17 -17z"/>
<path d="M4775 6019 c-8 -11 10 -36 36 -49 24 -14 19 10 -8 37 -13 13 -25 18
-28 12z"/>
<path d="M5810 5945 c0 -14 2 -25 4 -25 2 0 6 11 8 25 3 14 1 25 -3 25 -5 0
-9 -11 -9 -25z"/>
<path d="M5250 5831 c0 -6 4 -13 10 -16 6 -3 7 1 4 9 -7 18 -14 21 -14 7z"/>
<path d="M5295 5778 c9 -16 21 -28 27 -28 5 0 8 -8 6 -17 -2 -11 2 -17 11 -15
8 2 11 -3 8 -13 -4 -8 -2 -16 3 -16 6 -1 16 -2 23 -3 6 -1 11 -8 9 -15 -1 -7
2 -9 9 -6 11 7 2 19 -75 99 -27 29 -33 33 -21 14z"/>
<path d="M5423 5644 c4 -6 4 -20 0 -29 -5 -14 -3 -17 10 -12 9 3 17 2 17 -3 0
-6 11 -20 25 -32 14 -12 25 -28 25 -36 0 -9 3 -13 6 -9 9 9 36 -21 29 -33 -3
-6 0 -7 9 -4 11 4 14 0 11 -15 -2 -12 0 -19 5 -16 5 3 12 -4 15 -15 4 -12 12
-19 18 -17 14 4 37 -16 37 -33 0 -6 4 -9 9 -6 5 4 12 0 14 -6 3 -7 6 -8 6 -3
1 10 -23 38 -133 156 -33 36 -72 79 -86 95 -14 17 -22 25 -17 18z m158 -181
c13 -16 12 -17 -3 -4 -10 7 -18 15 -18 17 0 8 8 3 21 -13z"/>
<path d="M4347 5375 c-4 -22 -6 -58 -6 -80 1 -38 2 -37 11 15 5 30 7 66 6 80
-3 19 -5 16 -11 -15z"/>
<path d="M5560 7893 c0 -4 5 -15 10 -23 8 -13 10 -13 10 2 0 9 -4 20 -10 23
-5 3 -10 3 -10 -2z"/>
<path d="M4541 6784 c0 -11 3 -14 6 -6 3 7 2 16 -1 19 -3 4 -6 -2 -5 -13z"/>
<path d="M3980 6233 c0 -5 5 -15 10 -23 8 -12 10 -11 10 8 0 12 -4 22 -10 22
-5 0 -10 -3 -10 -7z"/>
<path d="M4152 5630 c0 -14 2 -19 5 -12 2 6 2 18 0 25 -3 6 -5 1 -5 -13z"/>
<path d="M3787 5868 c8 -44 13 -48 13 -10 0 17 -4 34 -10 37 -6 4 -7 -6 -3
-27z"/>
<path d="M3842 5772 c1 -18 5 -32 10 -32 11 0 10 31 -2 50 -6 10 -9 5 -8 -18z"/>
<path d="M3860 5635 c0 -8 5 -15 10 -15 6 0 10 7 10 15 0 8 -4 15 -10 15 -5 0
-10 -7 -10 -15z"/>
<path d="M6461 5998 c-1 -15 4 -30 9 -33 12 -7 12 12 0 40 -8 18 -9 17 -9 -7z"/>
<path d="M6371 5654 c0 -11 3 -14 6 -6 3 7 2 16 -1 19 -3 4 -6 -2 -5 -13z"/>
<path d="M6310 5599 c0 -9 7 -30 15 -45 19 -37 19 -17 0 27 -8 19 -14 27 -15
18z"/>
<path d="M6340 5580 c0 -5 5 -10 10 -10 6 0 10 5 10 10 0 6 -4 10 -10 10 -5 0
-10 -4 -10 -10z"/>
<path d="M6290 5479 c0 -5 5 -7 10 -4 6 3 10 8 10 11 0 2 -4 4 -10 4 -5 0 -10
-5 -10 -11z"/>
<path d="M6270 5450 c0 -5 5 -10 10 -10 6 0 10 5 10 10 0 6 -4 10 -10 10 -5 0
-10 -4 -10 -10z"/>
<path d="M6242 5429 c2 -7 10 -15 17 -17 8 -3 12 1 9 9 -2 7 -10 15 -17 17 -8
3 -12 -1 -9 -9z"/>
<path d="M6002 6350 c0 -14 2 -19 5 -12 2 6 2 18 0 25 -3 6 -5 1 -5 -13z"/>
<path d="M6002 6280 c1 -25 4 -36 10 -28 11 18 10 56 -2 63 -6 4 -9 -10 -8
-35z"/>
<path d="M2519 5983 c12 -24 31 -39 31 -25 0 5 -10 17 -21 28 -22 19 -22 19
-10 -3z"/>
<path d="M3680 5432 c0 -5 12 -19 27 -33 l26 -24 -23 33 c-25 33 -30 38 -30
24z"/>
<path d="M4060 5325 c7 -9 15 -13 17 -11 7 7 -7 26 -19 26 -6 0 -6 -6 2 -15z"/>
<path d="M6917 5238 c-8 -13 -25 -33 -36 -46 -12 -12 -19 -27 -15 -34 4 -7 3
-8 -4 -4 -8 5 -12 -2 -12 -19 0 -39 16 -22 55 56 35 71 39 86 12 47z"/>
<path d="M6797 5186 c-25 -38 -39 -76 -27 -76 12 0 52 78 48 92 -2 6 -12 -1
-21 -16z"/>
<path d="M6655 5179 c-4 -6 -5 -12 -2 -15 2 -3 7 2 10 11 7 17 1 20 -8 4z"/>
<path d="M6714 5164 c4 -10 2 -13 -6 -8 -8 5 -9 2 -5 -10 4 -10 7 -20 7 -23 0
-2 7 2 15 11 15 15 11 46 -7 46 -6 0 -7 -7 -4 -16z"/>
<path d="M6795 5090 c-3 -5 -1 -10 4 -10 6 0 11 5 11 10 0 6 -2 10 -4 10 -3 0
-8 -4 -11 -10z"/>
<path d="M6820 5083 c0 -10 4 -14 8 -8 4 6 11 13 16 18 5 4 2 7 -7 7 -10 0
-17 -8 -17 -17z"/>
<path d="M7661 5190 c0 -8 4 -22 9 -30 12 -18 12 -2 0 25 -6 13 -9 15 -9 5z"/>
<path d="M7580 5166 c0 -8 -3 -23 -6 -33 -3 -10 2 -7 10 7 18 30 20 40 6 40
-5 0 -10 -6 -10 -14z"/>
<path d="M7647 5146 c-4 -9 -2 -16 4 -16 6 0 8 -4 5 -9 -3 -4 2 -15 12 -24 16
-15 19 -15 30 3 7 11 8 21 2 25 -5 3 -13 -3 -19 -12 -10 -17 -10 -17 -11 2 0
11 -4 26 -9 33 -7 11 -9 11 -14 -2z"/>
<path d="M7620 5120 c0 -17 17 -47 23 -40 2 3 -2 16 -10 30 -7 14 -13 18 -13
10z"/>
<path d="M7465 5030 c4 -6 11 -8 16 -5 14 9 11 15 -7 15 -8 0 -12 -5 -9 -10z"/>
<path d="M6185 5150 c-3 -5 -1 -10 4 -10 6 0 11 5 11 10 0 6 -2 10 -4 10 -3 0
-8 -4 -11 -10z"/>
<path d="M2526 5097 c3 -10 9 -15 12 -12 3 3 0 11 -7 18 -10 9 -11 8 -5 -6z"/>
<path d="M2666 5033 c6 -21 64 -94 64 -80 0 5 -12 25 -27 45 -39 54 -42 57
-37 35z"/>
<path d="M3012 5104 c10 -10 20 -16 22 -13 3 3 -5 11 -17 18 -21 13 -21 12 -5
-5z"/>
<path d="M2400 5040 c0 -11 5 -20 10 -20 6 0 10 9 10 20 0 11 -4 20 -10 20 -5
0 -10 -9 -10 -20z"/>
<path d="M8402 4797 c-12 -13 -22 -29 -22 -35 0 -7 -5 -12 -11 -12 -5 0 -7 -5
-4 -10 10 -16 48 9 41 26 -4 10 -2 12 6 8 7 -5 9 -2 5 8 -3 9 0 21 6 27 6 6 9
11 6 11 -3 0 -15 -10 -27 -23z"/>
<path d="M8492 4800 c0 -14 2 -19 5 -12 2 6 2 18 0 25 -3 6 -5 1 -5 -13z"/>
<path d="M8532 4773 c-17 -25 -21 -38 -13 -46 8 -8 17 -5 31 11 17 18 18 22 5
22 -13 0 -14 4 -5 21 19 35 6 30 -18 -8z"/>
<path d="M8456 4778 c-9 -13 -12 -24 -6 -26 5 -2 3 -10 -6 -19 -8 -8 -12 -18
-9 -22 8 -7 27 24 37 58 10 34 3 37 -16 9z"/>
<path d="M8330 4781 c0 -4 -12 -20 -26 -34 l-26 -26 31 12 c17 6 29 17 27 23
-2 6 1 17 7 23 8 8 8 11 -1 11 -7 0 -12 -4 -12 -9z"/>
<path d="M8255 4769 c-9 -14 -2 -20 14 -10 8 6 9 11 3 15 -6 3 -14 1 -17 -5z"/>
<path d="M8195 4749 c-11 -16 -1 -19 13 -3 7 8 8 14 3 14 -5 0 -13 -5 -16 -11z"/>
<path d="M8145 4720 c-4 -6 14 -10 46 -10 61 0 61 5 2 14 -24 3 -44 2 -48 -4z"/>
<path d="M6820 4890 c0 -5 7 -7 15 -4 8 4 15 8 15 10 0 2 -7 4 -15 4 -8 0 -15
-4 -15 -10z"/>
<path d="M1973 4733 c4 -6 3 -13 -3 -15 -6 -2 3 -18 19 -36 17 -17 27 -32 24
-32 -9 0 30 -29 40 -30 19 -1 3 31 -30 61 -21 18 -38 36 -38 40 0 4 -4 11 -9
16 -5 4 -6 3 -3 -4z"/>
<path d="M2063 4696 c4 -10 7 -21 7 -26 0 -4 7 -10 15 -14 9 -3 15 0 15 10 0
8 -5 12 -11 9 -6 -4 -9 0 -7 10 2 10 -3 20 -11 23 -10 3 -12 0 -8 -12z"/>
<path d="M2120 4704 c0 -14 42 -74 51 -74 6 0 0 18 -12 40 -20 35 -39 52 -39
34z"/>
<path d="M9180 4700 c0 -5 5 -10 11 -10 5 0 7 5 4 10 -3 6 -8 10 -11 10 -2 0
-4 -4 -4 -10z"/>
<path d="M9025 4670 c0 -20 3 -26 12 -19 7 7 13 5 16 -3 4 -9 6 -8 6 3 1 9 -7
23 -16 32 -17 14 -18 14 -18 -13z"/>
<path d="M4123 4693 c9 -2 23 -2 30 0 6 3 -1 5 -18 5 -16 0 -22 -2 -12 -5z"/>
<path d="M4455 4690 c17 -4 39 -8 50 -8 16 0 15 2 -5 8 -14 4 -36 8 -50 8 -22
0 -22 -1 5 -8z"/>
<path d="M4058 4683 c7 -3 16 -2 19 1 4 3 -2 6 -13 5 -11 0 -14 -3 -6 -6z"/>
<path d="M3978 4673 c7 -3 16 -2 19 1 4 3 -2 6 -13 5 -11 0 -14 -3 -6 -6z"/>
<path d="M3863 4653 c9 -2 23 -2 30 0 6 3 -1 5 -18 5 -16 0 -22 -2 -12 -5z"/>
<path d="M3253 4533 c9 -2 25 -2 35 0 9 3 1 5 -18 5 -19 0 -27 -2 -17 -5z"/>
<path d="M3198 4523 c7 -3 16 -2 19 1 4 3 -2 6 -13 5 -11 0 -14 -3 -6 -6z"/>
<path d="M3318 4523 c6 -2 18 -2 25 0 6 3 1 5 -13 5 -14 0 -19 -2 -12 -5z"/>
<path d="M3230 4510 c0 -13 11 -13 30 0 12 8 11 10 -7 10 -13 0 -23 -4 -23
-10z"/>
<path d="M3158 4493 c7 -3 16 -2 19 1 4 3 -2 6 -13 5 -11 0 -14 -3 -6 -6z"/>
<path d="M2948 4453 c6 -2 18 -2 25 0 6 3 1 5 -13 5 -14 0 -19 -2 -12 -5z"/>
<path d="M2858 4443 c6 -2 18 -2 25 0 6 3 1 5 -13 5 -14 0 -19 -2 -12 -5z"/>
<path d="M2895 4420 c27 -12 43 -12 25 0 -8 5 -22 9 -30 9 -10 0 -8 -3 5 -9z"/>
<path d="M7970 4532 c29 -4 32 -6 15 -12 -16 -7 -13 -9 15 -9 26 -1 31 2 20 9
-13 8 -13 10 2 10 9 0 19 -6 21 -12 3 -8 6 -6 6 5 1 14 -8 17 -56 15 -43 -1
-49 -2 -23 -6z"/>
<path d="M6958 4498 c6 -6 18 -8 28 -6 14 3 12 5 -9 10 -19 3 -25 2 -19 -4z"/>
<path d="M7125 4450 c11 -5 27 -9 35 -9 9 0 8 4 -5 9 -11 5 -27 9 -35 9 -9 0
-8 -4 5 -9z"/>
<path d="M8215 4290 c-16 -7 -17 -9 -3 -9 9 -1 20 4 23 9 7 11 7 11 -20 0z"/>
<path d="M9458 4293 c12 -2 32 -2 45 0 12 2 2 4 -23 4 -25 0 -35 -2 -22 -4z"/>
<path d="M9555 4290 c-4 -6 15 -10 49 -10 31 0 56 5 56 10 0 6 -22 10 -49 10
-28 0 -53 -4 -56 -10z"/>
<path d="M9685 4295 c23 -8 85 -10 85 -3 0 4 -21 8 -47 7 -27 0 -43 -2 -38 -4z"/>
<path d="M593 4293 c9 -2 25 -2 35 0 9 3 1 5 -18 5 -19 0 -27 -2 -17 -5z"/>
<path d="M688 4293 c18 -2 45 -2 60 0 15 2 0 4 -33 4 -33 0 -45 -2 -27 -4z"/>
<path d="M1218 4293 c12 -2 32 -2 45 0 12 2 2 4 -23 4 -25 0 -35 -2 -22 -4z"/>
<path d="M1310 4296 c0 -2 14 -6 30 -8 17 -3 30 -1 30 4 0 4 -13 8 -30 8 -16
0 -30 -2 -30 -4z"/>
<path d="M412 4130 c0 -19 2 -27 5 -17 2 9 2 25 0 35 -3 9 -5 1 -5 -18z"/>
<path d="M1148 1453 c17 -2 47 -2 65 0 17 2 3 4 -33 4 -36 0 -50 -2 -32 -4z"/>
<path d="M2474 1445 c8 -8 18 -15 22 -15 3 0 1 7 -6 15 -7 8 -17 15 -22 15 -5
0 -3 -7 6 -15z"/>
<path d="M2590 1450 c0 -5 18 -9 40 -8 21 1 37 5 34 10 -7 11 -74 10 -74 -2z"/>
<path d="M1080 3206 l0 -326 403 0 c329 0 414 3 462 15 167 44 295 171 282
281 -15 133 -152 268 -337 332 -36 12 -118 16 -427 19 l-383 5 0 -326z"/>
<path d="M7625 1463 c-33 -2 -64 -9 -70 -15 -7 -7 -3 -8 14 -3 14 4 21 3 17
-3 -8 -14 251 -13 289 1 l29 11 -24 7 c-26 7 -150 8 -255 2z m215 -13 c0 -11
-43 -12 -115 0 -47 7 -45 7 33 9 49 0 82 -3 82 -9z"/>
<path d="M8018 1453 c12 -2 32 -2 45 0 12 2 2 4 -23 4 -25 0 -35 -2 -22 -4z"/>
<path d="M9298 1453 c12 -2 32 -2 45 0 12 2 2 4 -23 4 -25 0 -35 -2 -22 -4z"/>
<path d="M9468 1453 c17 -2 47 -2 65 0 17 2 3 4 -33 4 -36 0 -50 -2 -32 -4z"/>
<path d="M3057 1339 c7 -7 15 -10 18 -7 3 3 -2 9 -12 12 -14 6 -15 5 -6 -5z"/>
<path d="M3100 1319 c0 -5 5 -7 10 -4 6 3 10 8 10 11 0 2 -4 4 -10 4 -5 0 -10
-5 -10 -11z"/>
<path d="M3135 1291 c-3 -5 -1 -12 4 -15 5 -3 11 1 15 9 6 16 -9 21 -19 6z"/>
<path d="M3240 1230 c0 -5 5 -10 11 -10 5 0 7 5 4 10 -3 6 -8 10 -11 10 -2 0
-4 -4 -4 -10z"/>
<path d="M3552 1046 c7 -8 15 -12 17 -11 5 6 -10 25 -20 25 -5 0 -4 -6 3 -14z"/>
<path d="M3611 1011 c-9 -6 -7 -10 8 -14 12 -3 21 -1 21 3 0 14 -15 19 -29 11z"/>
<path d="M3678 973 c7 -3 16 -2 19 1 4 3 -2 6 -13 5 -11 0 -14 -3 -6 -6z"/>
<path d="M3725 950 c4 -6 11 -8 16 -5 14 9 11 15 -7 15 -8 0 -12 -5 -9 -10z"/>
<path d="M3778 923 c7 -3 16 -2 19 1 4 3 -2 6 -13 5 -11 0 -14 -3 -6 -6z"/>
<path d="M3966 871 c-19 -7 -18 -8 4 -14 13 -3 26 -4 29 -2 2 3 -2 5 -10 5
-11 0 -11 2 1 10 18 11 3 12 -24 1z"/>
<path d="M5530 1246 c0 -2 8 -10 18 -17 15 -13 16 -12 3 4 -13 16 -21 21 -21
13z"/>
<path d="M5601 1004 c0 -11 3 -14 6 -6 3 7 2 16 -1 19 -3 4 -6 -2 -5 -13z"/>
<path d="M7061 1254 c-7 -8 -20 -13 -28 -10 -8 4 -11 2 -7 -5 4 -6 0 -15 -7
-20 -8 -5 -9 -9 -4 -9 6 0 26 14 45 30 19 16 31 29 25 29 -5 0 -16 -7 -24 -15z"/>
<path d="M6907 1159 c7 -7 15 -10 18 -7 3 3 -2 9 -12 12 -14 6 -15 5 -6 -5z"/>
<path d="M6830 1115 c-7 -8 -21 -15 -31 -15 -11 0 -19 -4 -19 -10 0 -5 4 -10
9 -10 14 0 71 34 71 43 0 12 -17 8 -30 -8z"/>
<path d="M6750 1080 c0 -5 5 -10 10 -10 6 0 10 5 10 10 0 6 -4 10 -10 10 -5 0
-10 -4 -10 -10z"/>
<path d="M6723 1054 c0 -16 13 -19 21 -5 3 5 0 11 -7 14 -8 3 -14 -1 -14 -9z"/>
<path d="M6513 966 c-5 -7 -15 -16 -23 -19 -13 -5 -13 -5 0 -6 8 0 33 8 55 18
l40 18 -32 1 c-18 0 -36 -5 -40 -12z"/>
<path d="M6420 920 c-9 -6 -10 -10 -3 -10 6 0 15 5 18 10 8 12 4 12 -15 0z"/>
<path d="M6358 893 c7 -3 16 -2 19 1 4 3 -2 6 -13 5 -11 0 -14 -3 -6 -6z"/>
<path d="M6258 873 c7 -3 16 -2 19 1 4 3 -2 6 -13 5 -11 0 -14 -3 -6 -6z"/>
<path d="M6205 850 c11 -5 27 -9 35 -9 13 -1 13 0 0 9 -8 5 -24 9 -35 9 l-20
0 20 -9z"/>
<path d="M6268 853 c7 -3 16 -2 19 1 4 3 -2 6 -13 5 -11 0 -14 -3 -6 -6z"/>
<path d="M4671 1207 c-13 -21 -12 -21 5 -5 10 10 16 20 13 22 -3 3 -11 -5 -18
-17z"/>
<path d="M4660 915 c0 -5 5 -17 10 -25 5 -8 10 -10 10 -5 0 6 -5 17 -10 25 -5
8 -10 11 -10 5z"/>
<path d="M6335 1170 c-3 -6 1 -7 9 -4 18 7 21 14 7 14 -6 0 -13 -4 -16 -10z"/>
<path d="M6285 1160 c-13 -6 -15 -9 -5 -9 8 0 22 4 30 9 18 12 2 12 -25 0z"/>
<path d="M6116 1115 c-3 -8 -1 -15 3 -15 5 0 11 7 15 15 3 8 1 15 -3 15 -5 0
-11 -7 -15 -15z"/>
<path d="M3993 1133 c9 -2 23 -2 30 0 6 3 -1 5 -18 5 -16 0 -22 -2 -12 -5z"/>
<path d="M4151 1105 c9 -9 40 -17 79 -19 l65 -5 -67 11 c-38 6 -68 15 -68 20
0 4 -5 8 -12 8 -8 0 -8 -5 3 -15z"/>
<path d="M5092 793 c8 -40 13 -49 23 -40 14 14 10 34 -14 66 -19 25 -19 24 -9
-26z"/>
<path d="M4538 9395 c-14 -30 3 -55 37 -55 31 0 49 24 41 55 -9 36 -62 36 -78
0z"/>
<path d="M5637 9413 c-15 -14 -7 -63 12 -73 39 -20 82 22 61 60 -10 20 -58 28
-73 13z"/>
<path d="M4298 9349 c-21 -12 -24 -59 -6 -77 7 -7 21 -12 33 -12 12 0 26 5 33
12 19 19 15 66 -7 78 -24 12 -31 12 -53 -1z"/>
<path d="M5898 9349 c-21 -12 -24 -59 -6 -77 19 -19 55 -14 72 9 16 23 12 47
-12 67 -19 14 -31 15 -54 1z"/>
<path d="M4035 9264 c-20 -20 -16 -63 7 -77 28 -18 68 7 68 42 0 45 -44 66
-75 35z"/>
<path d="M6152 9268 c-20 -20 -14 -66 9 -79 33 -17 69 3 69 39 0 33 -16 52
-45 52 -12 0 -26 -5 -33 -12z"/>
<path d="M3777 9162 c-24 -27 -21 -59 8 -78 23 -15 27 -15 50 0 29 19 33 56 9
80 -21 21 -47 20 -67 -2z"/>
<path d="M6407 9162 c-23 -26 -21 -58 5 -76 12 -9 26 -16 30 -16 14 0 48 39
48 55 0 19 -35 55 -53 55 -8 0 -21 -8 -30 -18z"/>
<path d="M4552 9088 c-26 -26 -6 -70 29 -61 24 7 37 52 18 64 -19 12 -33 11
-47 -3z"/>
<path d="M5632 9088 c-21 -21 -14 -47 15 -54 19 -5 30 -2 39 11 26 36 -22 75
-54 43z"/>
<path d="M3525 9036 c-18 -27 -11 -52 17 -67 42 -23 90 45 56 79 -20 20 -56
14 -73 -12z"/>
<path d="M6646 9044 c-21 -54 13 -97 60 -75 27 12 33 58 12 79 -17 17 -65 15
-72 -4z"/>
<path d="M4120 8978 c-29 -20 -36 -30 -38 -65 -4 -54 11 -81 55 -99 31 -14 38
-13 71 3 90 44 72 154 -28 178 -18 4 -36 -1 -60 -17z"/>
<path d="M6013 8981 c-37 -23 -48 -55 -39 -106 8 -42 39 -65 86 -65 46 0 76
21 90 64 27 83 -62 153 -137 107z"/>
<path d="M3296 8914 c-22 -21 -20 -61 3 -74 31 -16 49 -12 67 15 15 23 15 27
0 50 -19 29 -47 32 -70 9z"/>
<path d="M6892 8918 c-7 -7 -12 -24 -12 -38 0 -31 17 -50 45 -50 44 0 61 52
27 83 -22 20 -43 22 -60 5z"/>
<path d="M5640 8876 c14 -38 12 -103 -5 -160 -39 -129 11 -221 97 -175 40 21
56 116 32 191 -10 34 -54 101 -61 94 -8 -8 -43 24 -43 39 0 7 -7 18 -15 25
-14 11 -14 10 -5 -14z m79 -86 c11 -24 11 -24 -3 -6 -9 11 -16 24 -16 30 0 12
5 7 19 -24z"/>
<path d="M4516 8827 c-41 -53 -66 -118 -66 -172 0 -91 36 -104 38 -13 1 36 -2
48 -8 38 -7 -11 -10 -8 -10 13 0 42 19 32 26 -14 4 -22 10 -36 13 -31 4 6 11
4 18 -4 8 -8 9 -15 3 -19 -6 -3 -10 -2 -10 3 0 5 -7 9 -15 9 -9 0 -14 -5 -12
-11 3 -6 10 -10 16 -8 6 1 11 -5 11 -13 0 -8 -4 -15 -10 -15 -5 0 -10 -7 -10
-16 0 -8 -4 -12 -10 -9 -6 3 -7 -1 -4 -10 5 -13 14 -5 35 32 28 46 29 53 26
160 -1 62 -3 113 -4 113 -1 0 -13 -15 -27 -33z m-23 -82 c-3 -9 -8 -14 -10
-11 -3 3 -2 9 2 15 9 16 15 13 8 -4z"/>
<path d="M3091 8786 c-21 -26 -9 -51 24 -51 27 0 30 3 30 30 0 23 -5 31 -21
33 -11 2 -26 -4 -33 -12z"/>
<path d="M3796 8765 c-39 -36 -37 -94 5 -129 35 -30 58 -32 100 -11 55 29 64
92 20 136 -38 38 -87 39 -125 4z"/>
<path d="M6309 8764 c-57 -61 -10 -163 70 -150 112 17 105 176 -7 176 -28 0
-45 -7 -63 -26z"/>
<path d="M3440 8647 c-19 -6 -58 -34 -86 -62 -40 -40 -54 -62 -64 -104 -46
-192 136 -350 318 -276 120 49 176 203 116 323 -54 109 -166 156 -284 119z
m44 -132 c3 -8 1 -15 -3 -15 -5 0 -12 6 -14 13 -4 7 -6 6 -6 -4 -1 -9 7 -20
16 -23 13 -5 14 -9 4 -19 -15 -15 -31 6 -31 41 0 25 25 30 34 7z m92 -11 c-9
-36 2 -67 21 -59 22 8 53 -4 53 -20 0 -30 -40 -23 -81 16 -22 21 -39 42 -36
46 2 4 7 16 10 26 4 9 14 17 23 17 12 0 15 -6 10 -26z m-117 -70 c10 -8 -11
-34 -27 -34 -23 0 -46 25 -37 40 5 8 51 4 64 -6z m26 -64 c13 -40 -17 -82 -31
-45 -8 19 3 65 16 65 5 0 12 -9 15 -20z m85 -20 c0 -47 -4 -49 -26 -15 -13 20
-14 28 -4 40 21 25 30 17 30 -25z"/>
<path d="M6635 8650 c-44 -14 -112 -75 -137 -123 -25 -49 -28 -145 -6 -197 66
-157 266 -193 385 -68 135 141 41 381 -154 394 -32 2 -72 -1 -88 -6z m43 -132
c16 -16 15 -43 -3 -58 -12 -10 -15 -9 -15 6 0 11 -3 29 -6 42 -7 24 5 29 24
10z m95 -14 c-6 -43 6 -64 37 -64 31 0 39 -13 18 -27 -18 -11 -39 -13 -33 -3
3 4 -11 20 -30 34 -36 28 -44 53 -23 74 17 17 34 9 31 -14z m-123 -85 c0 -16
-5 -20 -27 -17 -17 2 -29 10 -31 21 -3 13 3 17 27 17 25 0 31 -4 31 -21z m35
-40 c9 -14 -15 -70 -26 -63 -16 9 -11 74 5 74 8 0 18 -5 21 -11z m84 -46 c1
-33 -14 -28 -29 8 -11 26 -11 32 1 40 16 9 27 -10 28 -48z"/>
<path d="M7480 8539 c-10 -17 -9 -24 4 -37 21 -22 51 -4 51 29 0 33 -39 39
-55 8z"/>
<path d="M4147 8512 c-22 -24 -21 -55 1 -75 22 -20 31 -21 53 -4 28 21 32 54
10 76 -26 26 -43 26 -64 3z"/>
<path d="M6003 8504 c-15 -24 -15 -29 -2 -53 11 -20 22 -26 49 -26 27 0 38 6
49 26 13 24 13 29 -2 53 -12 18 -26 26 -47 26 -21 0 -35 -8 -47 -26z"/>
<path d="M2534 8406 c-3 -8 -4 -23 -2 -33 5 -25 61 -25 66 0 7 37 -51 67 -64
33z"/>
<path d="M7640 8401 c-14 -27 -2 -51 26 -51 30 0 51 35 33 56 -16 20 -46 17
-59 -5z"/>
<path d="M3927 8278 c-10 -5 -14 -14 -11 -20 4 -6 3 -8 -3 -5 -16 10 -35 -18
-31 -44 2 -12 9 -24 16 -27 8 -2 10 2 6 15 -6 16 -5 16 9 -2 17 -20 17 -20 23
3 7 25 26 29 43 8 8 -10 5 -19 -14 -40 -27 -29 -26 -31 8 -15 23 10 47 46 47
69 0 6 -9 10 -19 10 -10 0 -21 7 -25 15 -4 13 -2 14 14 5 16 -8 18 -8 14 4 -8
21 -57 36 -77 24z"/>
<path d="M6236 8261 c-25 -27 -18 -79 14 -103 32 -24 57 -15 65 23 4 16 11 32
17 35 7 4 8 -2 3 -17 -6 -19 -5 -22 5 -12 11 10 10 19 -1 50 -13 33 -19 38
-50 41 -25 2 -40 -3 -53 -17z m94 -20 c0 -6 -4 -13 -10 -16 -5 -3 -10 -15 -10
-26 0 -10 -7 -19 -15 -19 -8 0 -15 7 -15 15 0 9 7 18 15 21 8 4 15 12 15 20 0
8 5 14 10 14 6 0 10 -4 10 -9z"/>
<path d="M2593 8140 c-42 -17 -55 -87 -22 -127 17 -20 83 -16 102 5 31 34 14
122 -23 122 -5 0 -14 2 -22 4 -7 3 -23 1 -35 -4z"/>
<path d="M7560 8120 c-24 -24 -26 -67 -4 -98 20 -29 83 -31 108 -3 23 25 23
76 1 101 -24 26 -79 26 -105 0z"/>
<path d="M2627 7543 c-4 -3 -7 -19 -7 -34 0 -35 37 -51 56 -24 24 33 -21 86
-49 58z"/>
<path d="M7555 7519 c-9 -27 6 -42 36 -37 18 2 25 10 27 31 3 24 0 27 -27 27
-21 0 -31 -6 -36 -21z"/>
<path d="M2070 7485 c-20 -25 -8 -50 25 -50 24 0 31 5 33 24 6 37 -34 55 -58
26z"/>
<path d="M8117 7493 c-13 -12 -7 -50 9 -64 31 -26 70 25 44 56 -13 16 -42 20
-53 8z"/>
<path d="M5722 6990 c0 -19 2 -27 5 -17 2 9 2 25 0 35 -3 9 -5 1 -5 -18z"/>
</g>
</svg>
