<svg width="32" height="30" viewBox="0 0 32 30" fill="none" xmlns="http://www.w3.org/2000/svg">
<path fill-rule="evenodd" clip-rule="evenodd" d="M21.0001 2.5H11.0001C6.39841 2.5 2.66675 5.99844 2.66675 10.3125V19.6875C2.66675 24.0016 6.39841 27.5 11.0001 27.5H21.0001C25.6017 27.5 29.3334 24.0016 29.3334 19.6875V10.3125C29.3334 5.99844 25.6017 2.5 21.0001 2.5ZM26.8334 19.6875C26.8334 22.7031 24.2167 25.1562 21.0001 25.1562H11.0001C7.78341 25.1562 5.16675 22.7031 5.16675 19.6875V10.3125C5.16675 7.29688 7.78341 4.84375 11.0001 4.84375H21.0001C24.2167 4.84375 26.8334 7.29688 26.8334 10.3125V19.6875ZM16.0003 9.00024C12.4659 9.00024 9.60034 11.6867 9.60034 15.0002C9.60034 18.3137 12.4659 21.0002 16.0003 21.0002C19.5347 21.0002 22.4003 18.3137 22.4003 15.0002C22.4003 11.6867 19.5347 9.00024 16.0003 9.00024ZM16.0003 18.7502C13.7955 18.7502 12.0003 17.0672 12.0003 15.0002C12.0003 12.9317 13.7955 11.2502 16.0003 11.2502C18.2051 11.2502 20.0003 12.9317 20.0003 15.0002C20.0003 17.0672 18.2051 18.7502 16.0003 18.7502ZM23.9998 8.25C23.9998 8.66421 23.6416 9 23.1998 9C22.758 9 22.3998 8.66421 22.3998 8.25C22.3998 7.83579 22.758 7.5 23.1998 7.5C23.6416 7.5 23.9998 7.83579 23.9998 8.25Z" fill="url(#paint0_linear_16402_454)"/>
<defs>
<linearGradient id="paint0_linear_16402_454" x1="6.57225" y1="23.8386" x2="24.2127" y2="5.02213" gradientUnits="userSpaceOnUse">
<stop stop-color="#FFC107"/>
<stop offset="0.507" stop-color="#F44336"/>
<stop offset="0.99" stop-color="#9C27B0"/>
</linearGradient>
</defs>
</svg>
