<svg width="29" height="22" viewBox="0 0 29 22" fill="none" xmlns="http://www.w3.org/2000/svg">
<path d="M14.1897 21.9073H15.9226C15.9226 21.9073 16.4464 21.8302 16.7129 21.447C16.9594 21.0951 16.9503 20.4348 16.9503 20.4348C16.9503 20.4348 16.9159 17.3427 17.9962 16.8872C19.0602 16.439 20.427 19.8757 21.8753 21.1988C22.9701 22.1989 23.8021 21.9796 23.8021 21.9796L27.6757 21.9073C27.6757 21.9073 29.7022 21.741 28.7415 19.6226C28.6636 19.4491 28.1814 18.0561 25.8612 15.193C23.4323 12.1949 23.7586 12.6817 26.6842 7.49779C28.466 4.34066 29.1784 2.41264 28.9554 1.58841C28.7433 0.802742 27.4328 1.01 27.4328 1.01L23.0752 1.04374C23.0752 1.04374 22.7526 0.985904 22.5115 1.1763C22.2777 1.36428 22.1272 1.79808 22.1272 1.79808C22.1272 1.79808 21.4366 4.24185 20.5158 6.31929C18.5745 10.7031 17.7968 10.9345 17.4796 10.6621C16.7419 10.0283 16.9268 8.11234 16.9268 6.75309C16.9268 2.50422 17.4107 0.732851 15.9824 0.274947C15.5075 0.123115 15.1595 0.0218944 13.9468 0.00502421C12.3916 -0.016666 11.0738 0.0122543 10.3288 0.496669C9.83213 0.819612 9.44966 1.54021 9.68349 1.58118C9.9717 1.63179 10.6242 1.81495 10.9705 2.44156C11.4182 3.24892 11.4019 5.06607 11.4019 5.06607C11.4019 5.06607 11.6593 10.0669 10.8019 10.6887C10.2128 11.1152 9.40616 10.2452 7.67509 6.26627C6.78872 4.2298 6.11804 1.97642 6.11804 1.97642C6.11804 1.97642 5.98934 1.55708 5.75914 1.33295C5.47999 1.06061 5.08847 0.973854 5.08847 0.973854L0.944787 1.00759C0.944787 1.00759 0.323053 1.03169 0.0946616 1.39079C-0.108353 1.71132 0.0783479 2.37167 0.0783479 2.37167C0.0783479 2.37167 3.32296 12.4624 6.99536 17.55C10.365 22.2134 14.1897 21.9073 14.1897 21.9073Z" fill="#1E88E5"/>
</svg>
