<svg width="28" height="31" viewBox="0 0 28 31" fill="none" xmlns="http://www.w3.org/2000/svg">
<path d="M23.6843 22.6755H21.84L21.8486 21.6873C21.8486 21.2481 22.2395 20.8888 22.7173 20.8888H22.8349C23.3135 20.8888 23.7055 21.2481 23.7055 21.6873L23.6843 22.6755ZM16.7675 20.5578C16.2997 20.5578 15.9171 20.8478 15.9171 21.203V26.009C15.9171 26.3634 16.2997 26.6528 16.7675 26.6528C17.2372 26.6528 17.6202 26.3634 17.6202 26.009V21.203C17.6202 20.8475 17.2372 20.5578 16.7675 20.5578ZM28 17.8694V27.0124C28 29.2054 25.9385 31 23.4192 31H4.58117C2.0608 31 0 29.2054 0 27.0124V17.8694C0 15.6764 2.0608 13.8815 4.58117 13.8815H23.4192C25.9385 13.8815 28 15.6764 28 17.8694ZM5.83781 28.0051L5.83632 18.374L8.17152 18.3747V16.9477L1.94656 16.9391V18.342L3.88976 18.3472V28.0051H5.83781ZM12.8378 19.8087H10.8909V24.9516C10.8909 25.6956 10.9398 26.0676 10.8879 26.1988C10.7296 26.5977 10.018 27.021 9.74064 26.2418C9.6936 26.1054 9.73504 25.6938 9.73429 24.987L9.72645 19.8087H7.79035L7.79632 24.9054C7.79781 25.6866 7.77728 26.2694 7.80304 26.5343C7.85045 27.0017 7.83365 27.5469 8.30368 27.858C9.17952 28.4404 10.8584 27.7712 11.2784 26.939L11.2747 28.0009L12.8382 28.0026V19.8087H12.8378ZM19.0661 25.698L19.062 21.4176C19.0605 19.7863 17.7378 18.8091 15.9421 20.129L15.9499 16.9467L14.0049 16.9494L13.9955 27.9338L15.5945 27.9121L15.7401 27.228C17.7845 28.9581 19.0691 27.7729 19.0661 25.698ZM25.1593 25.1307L23.6992 25.1379C23.6985 25.1913 23.6966 25.2529 23.6958 25.3201V26.0717C23.6958 26.4737 23.3356 26.8012 22.898 26.8012H22.6121C22.1738 26.8012 21.8139 26.4737 21.8139 26.0717V25.9883V25.1617V24.0949H25.1567V22.9341C25.1567 22.0858 25.1332 21.2378 25.057 20.7528C24.8181 19.2186 22.484 18.9751 21.305 19.7604C20.9347 20.0057 20.6521 20.3339 20.4878 20.7752C20.3217 21.2164 20.2395 21.8192 20.2395 22.5849V25.1369C20.2399 29.3797 25.8257 28.7801 25.1593 25.1307ZM17.671 11.2744C17.7714 11.4996 17.9275 11.6822 18.1391 11.82C18.3482 11.9557 18.6159 12.0239 18.9358 12.0239C19.2166 12.0239 19.4652 11.9539 19.6818 11.8096C19.8975 11.666 20.0794 11.4514 20.2276 11.1652L20.191 11.8699H22.3612V3.35489H20.6528V9.982C20.6528 10.3409 20.3325 10.6347 19.9409 10.6347C19.5515 10.6347 19.23 10.3409 19.23 9.982V3.35489H17.447V9.09816C17.447 9.82976 17.4612 10.3175 17.4847 10.5648C17.5097 10.8104 17.5706 11.046 17.671 11.2744ZM11.0943 6.46522C11.0943 5.64786 11.1683 5.0096 11.315 4.54942C11.4628 4.09097 11.7283 3.72241 12.1128 3.44444C12.4962 3.1651 12.9871 3.02526 13.5841 3.02526C14.0862 3.02526 14.5163 3.11619 14.8758 3.29427C15.2369 3.47338 15.515 3.70588 15.7084 3.9928C15.9051 4.28076 16.0388 4.57663 16.1101 4.8794C16.1829 5.1863 16.2187 5.64923 16.2187 6.27371V8.42718C16.2187 9.21699 16.1844 9.79807 16.1179 10.167C16.0518 10.5369 15.91 10.88 15.6905 11.2017C15.4735 11.5199 15.1939 11.758 14.8549 11.9099C14.5122 12.0631 14.1202 12.1382 13.6774 12.1382C13.1828 12.1382 12.7661 12.0752 12.4227 11.9436C12.0781 11.8127 11.8119 11.6154 11.6222 11.3532C11.4307 11.0908 11.2959 10.7711 11.2146 10.3984C11.1328 10.0261 11.094 9.46602 11.094 8.71961V6.46522H11.0943ZM12.7941 9.84767C12.7941 10.3299 13.1831 10.7236 13.6569 10.7236C14.131 10.7236 14.5182 10.3299 14.5182 9.84767V5.31478C14.5182 4.83324 14.131 4.43954 13.6569 4.43954C13.1831 4.43954 12.7941 4.83324 12.7941 5.31478V9.84767ZM6.78795 12.1365H8.83531L8.83755 5.60583L11.2567 0.0113667H9.01749L7.73136 4.16674L6.42693 0H4.21083L6.78459 5.60893L6.78795 12.1365Z" fill="#FF0101"/>
</svg>
